<?xml version="1.0" encoding="utf-8"?>
<!-- Generator: Adobe Illustrator 24.0.0, SVG Export Plug-In . SVG Version: 6.00 Build 0)  -->
<svg version="1.1" xmlns="http://www.w3.org/2000/svg" xmlns:xlink="http://www.w3.org/1999/xlink" x="0px" y="0px"
	 viewBox="0 0 571.9 157.4" style="enable-background:new 0 0 571.9 157.4;" xml:space="preserve">
<style type="text/css">
	.st0{fill:#F9F9F9;}
	.st1{fill:#F99600;}
</style>
<g id="Layer_1">
	<g>
		<path class="st0" d="M134,21.7c-2.3,9.6-4.6,19.3-7,28.9c-2,8.2-4,16.4-5.9,24.7c-0.8,3.6-2.8,5.1-6.3,5c-1.5,0-3-0.1-4.5,0
			c-4.3,0.4-6.6-1.4-7.8-5.7C96.1,52.6,89.4,30.5,82.8,8.4c-1.7-5.5-1.3-6,4.4-6c1,0,2,0.1,3,0c5.2-0.8,7.3,1.8,8.5,6.6
			c4,16.5,8.2,32.8,12.4,49.2c0.3,1.3,0.7,2.5,1.5,5.2c3.4-14.4,6.4-27.4,9.5-40.5c1.3-5.3,2.7-10.6,3.8-16c0.7-3.5,2.6-4.5,5.9-4.6
			c10.7-0.3,10.7-0.4,13.1,10c3.9,16.6,7.7,33.2,12.7,49.9c1.8-6.9,3.7-13.8,5.4-20.6c2.8-10.9,5.5-21.9,8.4-32.8
			c1.4-5.4,10.3-9.1,15-6.1c2.1,1.3,1.1,3.3,0.6,5c-3,10-6.1,20-9.2,30c-3.8,12.3-7.7,24.7-11.6,37c-1.8,5.8-2.2,5.7-11.7,5.8
			c-4.8,0-6.3-2.5-7.2-6.4c-4.1-17.4-8.3-34.8-12.4-52.2C134.5,21.8,134.3,21.8,134,21.7z"/>
		<path class="st1" d="M119.3,157.4C82,157,39.9,141.4,3.7,110.2c-0.8-0.7-1.5-1.3-2.2-2c-1.1-1.1-2-2.5-0.9-4
			c1.1-1.4,2.6-1.1,4.1-0.3c4.2,2.3,8.4,4.6,12.7,6.8c39.1,19.6,80.6,28.7,124.3,27.4c29.8-0.9,58.6-7.2,86.3-18.4
			c0.6-0.3,1.2-0.5,1.8-0.8c2.9-1.1,6.2-3.2,8.3,0.7c2.2,4.1-1.8,5.5-4.2,7.2c-11,7.9-23.1,13.8-35.8,18.4
			C176,153.3,153.3,157.6,119.3,157.4z"/>
		<path class="st0" d="M60.3,70.8c-5.8,5.8-12.3,9.9-20.6,11.1C24.5,84,13,76.5,11.2,63.1c-2-14.9,7.3-26.6,22.4-28.6
			c8.5-1.1,16.9,0.2,25.4,1.9c0.1-1.3,0.2-2.4,0.2-3.6c0.9-16-4.5-22-23.6-19.9c-4.3,0.5-8.4,2-12.5,3.4c-2.2,0.8-4.9,3.6-6.8-0.3
			c-1.7-3.5,0-9,3.1-10.4C28.1,1.5,37.3-0.5,47,0.2c3.5,0.2,7,0.7,10.3,1.6c10.2,2.9,16,11,16.5,23.5c0.4,10.1,0.3,20.3,0.2,30.4
			c-0.1,5.1,0.6,10,3.2,14.4c2.5,4.2-0.3,5.9-3.2,7.8c-3.1,2.1-6.1,4-9,0.1C63.3,75.8,61.9,73.4,60.3,70.8z M44.2,44.6
			c-3.7,0-7.3,0.5-10.7,1.9c-5,2.2-7.1,6.3-7.2,11.5c-0.1,4.7,1.3,9,5.9,11.2c9.1,4.4,23.3-1.9,26.3-11.5c2.7-8.9,1.3-11.3-7.8-12.5
			C48.5,44.9,46.4,44.8,44.2,44.6z"/>
		<path class="st0" d="M221.1,82.6c-8.7-0.1-15.6-1.3-22.1-4c-5-2-7.1-6-5.8-11.1c0.8-3.4,3.1-2.4,5.1-1.6c4.8,2.1,9.7,3.4,14.8,4.2
			c5.2,0.7,10.3,0.7,15.3-1c4.2-1.4,7.3-4,7.7-8.8c0.4-4.9-2.3-8-6.5-9.6c-6-2.3-12.3-4.1-18.4-6.2C198,39.9,191.5,29,195,17.2
			c2.4-8.2,8.5-13,16.4-15.4c10.2-3.1,20.4-1.9,30.3,2c4.4,1.7,6.3,6.8,4.6,11.2c-1.2,3-3.2,1.5-4.9,0.8c-7-3-14.4-4.1-22-3.1
			c-6.3,0.8-9.9,3.6-10.5,8.2c-0.6,5,1.5,8.4,7.7,10.8c5.9,2.3,11.9,4,17.9,6.1c10.9,3.8,16.5,10.9,16.4,20.7
			c-0.1,9.9-6.6,18.6-16.7,22C229.4,81.9,224.5,82.8,221.1,82.6z"/>
		<path class="st1" d="M234.2,108.3c-5.8,0.6-11.6,1.1-17.4,1.7c-1.4,0.1-3.2,1-4-0.8c-0.9-2,0.9-3,2.3-3.8c9-5.8,19.1-7.4,29.6-7.3
			c4,0,8,0.4,11.9,1.5c3.6,1,5.4,3.2,5.2,6.8c-0.9,14.6-5.4,27.7-15.9,38.2c-1.2,1.2-2.8,3.1-4.7,1.7c-1.7-1.2-0.2-3.1,0.3-4.5
			c2.5-6.7,5.1-13.3,6.7-20.3c2.3-10.2,0.6-12.4-10-12.9c-1.3-0.1-2.7,0-4,0C234.2,108.5,234.2,108.4,234.2,108.3z"/>
		<path class="st0" d="M478.1,38.5c-1-2.8-0.4-4.3,2.6-5.3c5.7-1.7,11.4-2.4,17.2-1.7c6.6,0.8,10.3,4.7,10.4,11.3
			c0.2,10.1,0.1,20.3,0,30.4c0,1.4,0.3,3.1-2.1,3.1c-1.5,0-2.6-0.1-2.6-2c-0.1-3.6-2-1.5-3.2-0.8c-4.7,2.7-9.6,4.5-15.2,3.5
			c-6.4-1.2-9.9-4.9-10.4-10.9c-0.6-6.6,2.4-11.5,8.2-13.8c5.7-2.3,11.4-1.6,17.1-0.2c2.6,0.6,3,0,3.2-2.5
			c0.5-11.1-2.9-14.3-14.2-13.3C485.5,36.6,481.9,37.8,478.1,38.5z M503.3,62.1c-0.8-1.8,1.6-4.8-2-5.7c-5.1-1.2-10.2-1.8-15.2-0.2
			c-4.5,1.5-6.6,5.2-5.8,9.7c0.8,4.5,3.5,6.6,8.5,6.5c3.4,0,6.4-1.3,9.6-2.5C502.2,68.6,504.4,66.5,503.3,62.1z"/>
		<path class="st0" d="M354.9,55.4c-4.2,0-8.3,0.1-12.5,0c-2.1-0.1-2.8,0.4-2.7,2.8c0.3,8.8,5.5,14.3,14.3,14.6
			c4.4,0.1,8.6-0.2,12.8-1.8c0.9-0.3,2.3-1.5,2.9,0.4c0.3,1.2,0.4,2.4-1,3.5c-9.8,7.7-28.9,2.2-32.8-9.6c-2.2-6.7-2.3-13.4-0.3-20.1
			c3.3-11.2,15-16.8,25.9-12.5c7.2,2.8,12,14.9,8.9,21.6c-0.8,1.8-2.1,1.2-3.3,1.3C362.9,55.4,358.9,55.4,354.9,55.4z M352.6,51.3
			c3.3,0,6.7-0.1,10,0c2.8,0.1,3.3-1.2,3.2-3.7c-0.5-7-3.9-11-10-11.6c-8-0.8-13.7,2.8-15.5,10.1c-0.8,3.3-1,5.9,3.9,5.2
			C346.9,51,349.7,51.3,352.6,51.3z"/>
		<path class="st0" d="M434.4,38.1c-4.8-1.5-9.6-2.5-14.4-2c-3.5,0.4-6.5,1.7-7.1,5.7c-0.6,4,1.4,6.3,4.8,7.7c4,1.6,8,3.2,12,4.8
			c4.9,2.1,7.8,5.5,7.5,11.1c-0.3,5.2-3.3,9.3-8.7,10.9c-6.6,2-13.1,1.2-19.6-1.1c-2.1-0.7-2.4-2.4-1.9-4c0.6-2.1,2.1-0.6,3.2-0.3
			c4.8,1.3,9.7,2.2,14.8,1.4c3.5-0.6,6.2-2.3,7-6.1c0.8-4.1-1.6-6.3-4.8-7.7c-3.6-1.6-7.5-2.8-11.1-4.3c-6.3-2.6-9-7.1-8.1-13.2
			c0.8-5.2,5.5-9.1,11.7-9.8c4.2-0.4,8.3,0.1,12.3,1.2C434.7,33.5,435.7,35,434.4,38.1z"/>
		<path class="st0" d="M449.4,53.4c0-4.2-0.2-8.3,0.1-12.5c0.2-3-0.7-4.2-3.9-4c-1.5,0.1-4.1,1.2-4.4-1.6c-0.4-3.1,2.5-2.2,3.9-2.2
			c4,0,5.1-1.9,4.8-5.5c-0.2-2,0.1-4,0.2-6c0.1-1.7,1.3-1.7,2.5-1.6c1.2,0,1.8,0.6,1.9,1.8c0,2.5,0.2,5,0,7.5
			c-0.3,2.7,0.9,3.4,3.4,3.2c2.6-0.2,5.3,0,8,0c1.3,0,2.7-0.2,2.7,1.9c0,1.9-0.6,2.8-2.6,2.7c-2.3-0.1-4.7,0.2-7-0.1
			c-3.3-0.3-4.7,0.6-4.6,4.3c0.3,7.5,0,14.9,0.1,22.4c0.1,7.4,1.9,8.8,9.5,8.2c1.5-0.1,4.1-2.3,4.8,1.1c0.6,3.3-2.4,3.1-4.3,3.4
			c-11,1.6-15-1.9-15-13.1C449.4,60.1,449.4,56.7,449.4,53.4z"/>
		<path class="st0" d="M552.4,52.8c0-3.7-0.2-7.3,0.1-11c0.2-3.4-0.4-5.5-4.5-4.9c-1.3,0.2-3.3,0.8-3.5-1.5
			c-0.3-2.8,2.1-2.3,3.4-2.2c4.1,0,5.2-1.7,5.2-5.7c0-2.4-2-7.2,2.4-7.2c4.7,0.1,2,4.8,2,7.1c0,4,0.8,5.8,5.1,5.1
			c1.8-0.3,3.7-0.1,5.5,0c1.6,0,3.4-0.4,3.3,2.3c-0.1,2.7-1.9,2.2-3.5,2.2c-2.3,0-4.7,0.2-7,0c-2.8-0.3-3.3,1-3.3,3.4
			c0.1,8,0,16,0.1,23.9c0,6.5,1.9,8.2,8.5,7.6c1-0.1,2-0.4,3-0.4c1,0,2.4-0.8,2.6,1.1c0.2,1.6,0,3-2,3.3
			c-9.3,1.7-17.5,1.5-17.5-11.2C552.3,60.8,552.4,56.8,552.4,52.8z"/>
		<path class="st0" d="M408.9,11.1c-5.4,14.2-10.7,28.3-16,42.3c-4,10.5-8,21.1-12,31.6c-0.3,0.8-0.6,1.5-0.9,2.3
			c-0.8,2.4-2.9,1.5-4.2,1.3c-2.3-0.4-0.8-2.1-0.4-3.1c9-24,18.2-48,27.1-72C403.9,10,406.1,10.6,408.9,11.1z"/>
		<path class="st0" d="M523.9,37.7c4-3.7,8.3-5.7,13.7-5.3c1.6,0.1,2.9,0.1,2.9,2.3c0,2.1-1.1,2.4-2.8,2.4c-2,0-4,0.1-5.9,0.5
			c-5.6,1.3-8.3,4.7-8.3,10.4c0,8.3,0,16.6,0,24.9c0,2,0,3.5-2.8,3.5c-3,0-2.6-1.8-2.6-3.6c0-11.6-0.1-23.3,0.1-34.9
			c0-1.8-2-4.9,2.1-5.4C524.3,32,522,36,523.9,37.7z"/>
		<path class="st0" d="M313.1,38.2c4.4-4.4,9-6.3,14.5-5.8c1.5,0.1,2.5,0.2,2.5,2.2c0,1.9-0.6,2.7-2.6,2.6c-1.6-0.1-3.3,0-5,0.3
			c-6.7,1.1-9.7,4.6-9.7,11.2c0,8.1,0,16.3,0,24.4c0,2.1-0.2,3.4-2.9,3.4c-2.8-0.1-2.1-2-2.2-3.5c0-12.3-0.1-24.6,0-36.9
			c0-1.3-1.1-3.4,1.9-3.6c2.5-0.1,2.7,1.3,2.8,3C312.5,36.2,312.8,36.8,313.1,38.2z"/>
	</g>
</g>
<g id="Layer_2">
</g>
</svg>
