<?xml version="1.0" encoding="utf-8"?>
<!-- Generator: Adobe Illustrator 24.0.0, SVG Export Plug-In . SVG Version: 6.00 Build 0)  -->
<svg version="1.1" id="Layer_1" xmlns="http://www.w3.org/2000/svg" xmlns:xlink="http://www.w3.org/1999/xlink" x="0px" y="0px"
	 viewBox="0 0 912 768" style="enable-background:new 0 0 912 768;" xml:space="preserve">
<style type="text/css">
	.st0{fill:url(#SVGID_1_);}
	.st1{fill:url(#SVGID_2_);}
	.st2{opacity:0.6;fill:#020230;}
	.st3{fill:url(#SVGID_3_);}
	.st4{fill:#E8975B;}
	.st5{fill:#F8359E;}
	.st6{fill:url(#SVGID_4_);}
	.st7{fill:url(#SVGID_5_);}
	.st8{fill:url(#SVGID_6_);}
	.st9{fill:url(#SVGID_7_);}
	.st10{fill:url(#SVGID_8_);}
	.st11{fill:url(#SVGID_9_);}
	.st12{opacity:0.4;fill:#06033E;}
	.st13{fill:url(#SVGID_10_);}
	.st14{fill:#2D0C77;}
	.st15{fill:url(#SVGID_11_);}
	.st16{fill:url(#SVGID_12_);}
	.st17{fill:url(#SVGID_13_);}
	.st18{opacity:0.4;fill:#F8359E;}
	.st19{opacity:0.5;fill:#E8975B;}
	.st20{fill:url(#SVGID_14_);}
	.st21{fill:url(#SVGID_15_);}
	.st22{fill:url(#SVGID_16_);}
	.st23{fill:url(#SVGID_17_);}
	.st24{fill:url(#SVGID_18_);}
	.st25{fill:url(#SVGID_19_);}
	.st26{fill:url(#SVGID_20_);}
	.st27{fill:url(#SVGID_21_);}
	.st28{fill:url(#SVGID_22_);}
	.st29{fill:url(#SVGID_23_);}
	.st30{fill:url(#SVGID_24_);}
	.st31{fill:url(#SVGID_25_);}
	.st32{fill:url(#SVGID_26_);}
	.st33{fill:url(#SVGID_27_);}
	.st34{fill:url(#SVGID_28_);}
	.st35{fill:url(#SVGID_29_);}
	.st36{fill:url(#SVGID_30_);}
	.st37{fill:url(#SVGID_31_);}
	.st38{fill:url(#SVGID_32_);}
	.st39{fill:url(#SVGID_33_);}
	.st40{fill:url(#SVGID_34_);}
	.st41{fill:url(#SVGID_35_);}
	.st42{fill:url(#SVGID_36_);}
	.st43{fill:url(#SVGID_37_);}
	.st44{fill:url(#SVGID_38_);}
	.st45{fill:url(#SVGID_39_);}
	.st46{fill:url(#SVGID_40_);}
	.st47{opacity:0.7;}
	.st48{fill:#06033E;}
	.st49{fill:url(#SVGID_41_);}
	.st50{fill:url(#SVGID_42_);}
	.st51{fill:url(#SVGID_43_);}
	.st52{fill:url(#SVGID_44_);}
	.st53{fill:url(#SVGID_45_);}
	.st54{fill:url(#SVGID_46_);}
	.st55{opacity:0.3;fill:#06033E;}
	.st56{fill:url(#SVGID_47_);}
	.st57{fill:url(#SVGID_48_);}
	.st58{fill:url(#SVGID_49_);}
	.st59{fill:url(#SVGID_50_);}
	.st60{fill:url(#SVGID_51_);}
	.st61{fill:url(#SVGID_52_);}
	.st62{fill:url(#SVGID_53_);}
	.st63{fill:url(#SVGID_54_);}
	.st64{fill:url(#SVGID_55_);}
	.st65{fill:url(#SVGID_56_);}
	.st66{fill:url(#SVGID_57_);}
	.st67{fill:url(#SVGID_58_);}
	.st68{fill:url(#SVGID_59_);}
	.st69{fill:url(#SVGID_60_);}
	.st70{fill:url(#SVGID_61_);}
	.st71{fill:url(#SVGID_62_);}
	.st72{fill:url(#SVGID_63_);}
	.st73{fill:url(#SVGID_64_);}
</style>
<g>
	
		<radialGradient id="SVGID_1_" cx="201.665" cy="148.1004" r="733.4801" gradientTransform="matrix(1.6504 0 0 1.8569 -232.2248 -449.3198)" gradientUnits="userSpaceOnUse">
		<stop  offset="3.968250e-03" style="stop-color:#4C02F1"/>
		<stop  offset="8.168010e-03" style="stop-color:#4B02EF"/>
		<stop  offset="0.1263" style="stop-color:#3903C4"/>
		<stop  offset="0.2487" style="stop-color:#29039E"/>
		<stop  offset="0.3765" style="stop-color:#1D0380"/>
		<stop  offset="0.5099" style="stop-color:#130468"/>
		<stop  offset="0.6513" style="stop-color:#0C0457"/>
		<stop  offset="0.8062" style="stop-color:#07044D"/>
		<stop  offset="1" style="stop-color:#06044A"/>
	</radialGradient>
	<rect x="0" class="st0" width="912" height="768"/>
	<g>
		<g>
			<linearGradient id="SVGID_2_" gradientUnits="userSpaceOnUse" x1="566.0253" y1="222.8817" x2="885.2699" y2="459.1379">
				<stop  offset="0" style="stop-color:#4F1FEC"/>
				<stop  offset="1" style="stop-color:#A92FFB"/>
			</linearGradient>
			<path class="st1" d="M698.6,440.8L513.5,334c-5.4-3.1-4.8-8.6,1.5-12.3l182-105.1c6.3-3.6,15.8-4,21.2-0.9l185,106.8
				c5.4,3.1,4.8,8.6-1.5,12.3l-182,105.1C713.5,443.5,704,443.9,698.6,440.8z"/>
			<path class="st2" d="M698.6,440.8L513.5,334c-5.4-3.1-4.8-8.6,1.5-12.3l182-105.1c6.3-3.6,15.8-4,21.2-0.9l185,106.8
				c5.4,3.1,4.8,8.6-1.5,12.3l-182,105.1C713.5,443.5,704,443.9,698.6,440.8z"/>
			<linearGradient id="SVGID_3_" gradientUnits="userSpaceOnUse" x1="217.8344" y1="275.1787" x2="1043.9733" y2="275.1787">
				<stop  offset="0" style="stop-color:#131060"/>
				<stop  offset="0.1366" style="stop-color:#141062"/>
				<stop  offset="0.2076" style="stop-color:#19106A"/>
				<stop  offset="0.2636" style="stop-color:#221078"/>
				<stop  offset="0.3116" style="stop-color:#2E0F8B"/>
				<stop  offset="0.3547" style="stop-color:#3E0FA3"/>
				<stop  offset="0.3941" style="stop-color:#510EC2"/>
				<stop  offset="0.43" style="stop-color:#680DE5"/>
				<stop  offset="0.4464" style="stop-color:#740DF8"/>
				<stop  offset="0.5208" style="stop-color:#7E19EB"/>
				<stop  offset="0.6598" style="stop-color:#9838C7"/>
				<stop  offset="0.8468" style="stop-color:#C26A8E"/>
				<stop  offset="1" style="stop-color:#E8975B"/>
			</linearGradient>
			<path class="st3" d="M513.5,334l4.8,2.8L697,233.6c6.3-3.6,15.8-4,21.2-0.9l180.2,104.1l3.3-1.9c6.3-3.6,7-9.1,1.5-12.3
				l-185-106.8c-5.4-3.1-15-2.7-21.2,0.9L515,321.7C508.8,325.3,508.1,330.8,513.5,334z"/>
			<path class="st2" d="M549.2,334.2l172.5-99.6l-3.3-1.9c-5.4-3.1-15-2.7-21.2,0.9L518.3,336.7l180.2,104.1c3.8,2.2,9.7,2.7,15,1.5
				l-166-95.8C542.2,343.3,542.9,337.8,549.2,334.2z"/>
			<path class="st2" d="M718.3,215.7c-5.4-3.1-15-2.7-21.2,0.9L515,321.7c-6.3,3.6-7,9.1-1.5,12.3l4.8,2.8L697,233.6
				c6.3-3.6,15.8-4,21.2-0.9l3.3,1.9h0v-17L718.3,215.7z"/>
		</g>
		<g>
			<g>
				<path class="st4" d="M681.2,354.1l28.6-16.6c1.6-1,4.4-0.9,6.1,0.1c1.7,1,1.7,2.6,0.1,3.6l-28.6,16.6c-1.6,1-4.4,0.9-6.1-0.1
					C679.6,356.6,679.6,355,681.2,354.1z"/>
				<path class="st5" d="M668.4,349.9c-1.7-1-1.7-2.6-0.1-3.6l44-25.6c1.6-1,4.4-0.9,6.1,0.1c1.7,1,1.7,2.6,0.1,3.6l-44,25.6
					C672.8,351,670.1,350.9,668.4,349.9z"/>
				<path class="st4" d="M655.4,338.5l8.8-5.1c1.6-1,4.4-0.9,6.1,0.1c1.7,1,1.7,2.6,0.1,3.6l-8.8,5.1c-1.6,1-4.4,0.9-6.1-0.1
					C653.8,341.1,653.8,339.5,655.4,338.5z"/>
				<path class="st4" d="M642.5,330.8l24.9-14.5c1.6-1,4.4-0.9,6.1,0.1c1.7,1,1.7,2.6,0.1,3.6l-24.9,14.5c-1.6,1-4.4,0.9-6.1-0.1
					C640.9,333.3,640.9,331.7,642.5,330.8z"/>
				<path class="st5" d="M706.1,312.7c1.7,1,1.7,2.6,0.1,3.6l-24.9,14.5c-1.6,1-4.4,0.9-6.1-0.1c-1.7-1-1.7-2.6-0.1-3.6l24.9-14.5
					C701.7,311.6,704.4,311.7,706.1,312.7z"/>
				<path class="st4" d="M725.7,305l-1.5,0.9l-7.1,4.1c-1.6,1-4.4,0.9-6.1-0.1c-1.7-1-1.7-2.6-0.1-3.6l7.1-4.1l1.5-0.9l7.1-4.1
					c1.6-1,4.4-0.9,6.1,0.1c1.7,1,1.7,2.6,0.1,3.6L725.7,305z"/>
			</g>
			<g>
				<path class="st4" d="M713.6,373.2l9-5.1c1.7-1,4.4-0.9,6.1,0.1c1.7,1,1.6,2.5,0,3.5l-9,5.1c-1.7,1-4.4,0.9-6.1-0.1
					C711.9,375.7,711.9,374.1,713.6,373.2z"/>
				<path class="st4" d="M700.9,365.7l25.3-14.3c1.7-1,4.4-0.9,6.1,0.1c1.7,1,1.6,2.5,0,3.5L707,369.3c-1.7,1-4.4,0.9-6.1-0.1
					C699.2,368.2,699.3,366.7,700.9,365.7z"/>
				<path class="st4" d="M765,347.5c1.7,1,1.6,2.5,0,3.5l-25.3,14.3c-1.7,1-4.4,0.9-6.1-0.1c-1.7-1-1.6-2.5,0-3.5l25.3-14.3
					C760.6,346.5,763.4,346.5,765,347.5z"/>
				<path class="st4" d="M784.8,339.8l-1.5,0.8l-7.2,4.1c-1.7,1-4.4,0.9-6.1-0.1c-1.7-1-1.6-2.5,0-3.5l7.2-4.1l1.5-0.8l7.2-4.1
					c1.7-1,4.4-0.9,6.1,0.1c1.7,1,1.6,2.5,0,3.5L784.8,339.8z"/>
			</g>
		</g>
		<g>
			<g>
				<path class="st2" d="M458.4,461.6l-70.9-40.9c-2.6-1.5-2.3-4.1,0.7-5.9l75.1-43.5c3-1.7,7.5-1.9,10.1-0.4l70.9,40.9
					c2.6,1.5,2.3,4.1-0.7,5.9l-75.1,43.5C465.5,462.9,461,463.1,458.4,461.6z"/>
				<g>
					
						<linearGradient id="SVGID_4_" gradientUnits="userSpaceOnUse" x1="177.609" y1="1612.0793" x2="177.609" y2="1442.6832" gradientTransform="matrix(0.866 0.5 0 1.1547 354.2614 -1587.5302)">
						<stop  offset="0" style="stop-color:#2D0979"/>
						<stop  offset="1" style="stop-color:#5B04F7"/>
					</linearGradient>
					<path class="st6" d="M546,384.6l-75.8-43.8c-2.9-1.7-5.3-6.3-5.3-10.2V149.3c0-3.9,2.4-5.7,5.3-4L546,189
						c2.9,1.7,5.3,6.3,5.3,10.2v181.4C551.3,384.5,548.9,386.3,546,384.6z"/>
					<linearGradient id="SVGID_5_" gradientUnits="userSpaceOnUse" x1="536.5075" y1="302.5537" x2="346.5132" y2="267.8868">
						<stop  offset="0" style="stop-color:#2D0979"/>
						<stop  offset="1" style="stop-color:#5B04F7"/>
					</linearGradient>
					<path class="st7" d="M546,189l-75.8-43.8c-1.3-0.8-2.5-0.8-3.5-0.3l0,0l-86.5,49.9l4.1,15.1l78.9,224.7l86.2-49.7c0,0,0,0,0,0
						l0.2-0.1l0,0c1.1-0.7,1.8-2.2,1.8-4.3V199.2C551.3,195.3,548.9,190.7,546,189z"/>
					<radialGradient id="SVGID_6_" cx="407.4415" cy="146.2058" r="221.3542" gradientUnits="userSpaceOnUse">
						<stop  offset="0" style="stop-color:#E39A65"/>
						<stop  offset="0.4742" style="stop-color:#A92FFB"/>
						<stop  offset="0.5875" style="stop-color:#891CFB"/>
						<stop  offset="0.7262" style="stop-color:#6507FA"/>
						<stop  offset="1" style="stop-color:#3919BB"/>
					</radialGradient>
					<path class="st8" d="M546,189l-75.8-43.8c-1.3-0.8-2.5-0.8-3.5-0.3l0,0l-86.5,49.9l4.1,15.1l21.7,61.8l4.1,2.4l139.8-80.7
						C548.8,191.5,547.5,189.9,546,189z"/>
					
						<radialGradient id="SVGID_7_" cx="22.2774" cy="1519.3148" r="196.5162" gradientTransform="matrix(0.866 0.5 0 1.1547 354.2614 -1587.5302)" gradientUnits="userSpaceOnUse">
						<stop  offset="0" style="stop-color:#E39A65"/>
						<stop  offset="0.4742" style="stop-color:#A92FFB"/>
						<stop  offset="0.5875" style="stop-color:#891CFB"/>
						<stop  offset="0.7262" style="stop-color:#6507FA"/>
						<stop  offset="1" style="stop-color:#3919BB"/>
					</radialGradient>
					<path class="st9" d="M459.5,434.5l-75.8-43.8c-2.9-1.7-5.3-6.3-5.3-10.2V199.2c0-3.9,2.4-5.7,5.3-4l75.8,43.8
						c2.9,1.7,5.3,6.3,5.3,10.2v181.4C464.8,434.4,462.4,436.2,459.5,434.5z"/>
					
						<linearGradient id="SVGID_8_" gradientUnits="userSpaceOnUse" x1="30.7514" y1="1623.7655" x2="115.8745" y2="1604.4764" gradientTransform="matrix(0.866 0.5 0 1.1547 354.2614 -1587.5302)">
						<stop  offset="0" style="stop-color:#3919BB"/>
						<stop  offset="1" style="stop-color:#6507FA"/>
					</linearGradient>
					<path class="st10" d="M454.7,423.6l-66.3-38.3c-2.6-1.5-4.7-5.5-4.7-8.9V208c0-3.4,2.1-5,4.7-3.5l66.3,38.3
						c2.6,1.5,4.7,5.5,4.7,8.9v168.4C459.4,423.5,457.3,425.1,454.7,423.6z"/>
					
						<linearGradient id="SVGID_9_" gradientUnits="userSpaceOnUse" x1="30.7514" y1="1623.7655" x2="115.8745" y2="1604.4764" gradientTransform="matrix(0.866 0.5 0 1.1547 354.2614 -1587.5302)">
						<stop  offset="0" style="stop-color:#3919BB"/>
						<stop  offset="1" style="stop-color:#6507FA"/>
					</linearGradient>
					<path class="st11" d="M454.7,423.6l-66.3-38.3c-2.6-1.5-4.7-5.5-4.7-8.9V208c0-3.4,2.1-5,4.7-3.5l66.3,38.3
						c2.6,1.5,4.7,5.5,4.7,8.9v168.4C459.4,423.5,457.3,425.1,454.7,423.6z"/>
					<path class="st12" d="M454.7,423.6l-66.3-38.3c-2.6-1.5-4.7-5.5-4.7-8.9V208c0-3.4,2.1-5,4.7-3.5l66.3,38.3
						c2.6,1.5,4.7,5.5,4.7,8.9v168.4C459.4,423.5,457.3,425.1,454.7,423.6z"/>
					<linearGradient id="SVGID_10_" gradientUnits="userSpaceOnUse" x1="421.2715" y1="424.1375" x2="421.2715" y2="203.8872">
						<stop  offset="0" style="stop-color:#E8975B"/>
						<stop  offset="6.930405e-03" style="stop-color:#E29063"/>
						<stop  offset="6.339521e-02" style="stop-color:#B358A3"/>
						<stop  offset="0.1111" style="stop-color:#912FD1"/>
						<stop  offset="0.1476" style="stop-color:#7C16ED"/>
						<stop  offset="0.1687" style="stop-color:#740DF8"/>
						<stop  offset="0.1989" style="stop-color:#680DE5"/>
						<stop  offset="0.2662" style="stop-color:#510EC2"/>
						<stop  offset="0.3399" style="stop-color:#3E0FA3"/>
						<stop  offset="0.4203" style="stop-color:#2E0F8B"/>
						<stop  offset="0.5101" style="stop-color:#221078"/>
						<stop  offset="0.6146" style="stop-color:#19106A"/>
						<stop  offset="0.7469" style="stop-color:#141062"/>
						<stop  offset="1" style="stop-color:#131060"/>
					</linearGradient>
					<path class="st13" d="M456.9,422.3l-66.3-38.3c-2.6-1.5-4.7-5.5-4.7-8.9V206.7c0-1.2,0.2-2.1,0.7-2.8c-1.7,0-2.8,1.5-2.8,4.1
						v168.4c0,3.4,2.1,7.4,4.7,8.9l66.3,38.3c1.7,1,3.2,0.6,4-0.7C458.2,422.9,457.5,422.7,456.9,422.3z"/>
				</g>
			</g>
			<path class="st14" d="M464.9,210.4L434.7,193c-1.6-0.9-1.4-2.5,0.4-3.5l0,0c1.8-1,4.5-1.1,6.1-0.3l30.2,17.4
				c1.6,0.9,1.4,2.5-0.4,3.5l0,0C469.2,211.2,466.5,211.3,464.9,210.4z"/>
			<g>
				<linearGradient id="SVGID_11_" gradientUnits="userSpaceOnUse" x1="375.2298" y1="178.9293" x2="528.315" y2="217.0674">
					<stop  offset="0" style="stop-color:#131060"/>
					<stop  offset="0.1366" style="stop-color:#141062"/>
					<stop  offset="0.2076" style="stop-color:#19106A"/>
					<stop  offset="0.2636" style="stop-color:#221078"/>
					<stop  offset="0.3116" style="stop-color:#2E0F8B"/>
					<stop  offset="0.3547" style="stop-color:#3E0FA3"/>
					<stop  offset="0.3941" style="stop-color:#510EC2"/>
					<stop  offset="0.43" style="stop-color:#680DE5"/>
					<stop  offset="0.4464" style="stop-color:#740DF8"/>
					<stop  offset="0.4617" style="stop-color:#7A14F0"/>
					<stop  offset="0.5528" style="stop-color:#9B3CC3"/>
					<stop  offset="0.6445" style="stop-color:#B75D9D"/>
					<stop  offset="0.7355" style="stop-color:#CC7680"/>
					<stop  offset="0.8256" style="stop-color:#DC886C"/>
					<stop  offset="0.9142" style="stop-color:#E5935F"/>
					<stop  offset="1" style="stop-color:#E8975B"/>
				</linearGradient>
				<path class="st15" d="M435.1,191.7c1.8-1,4.5-1.1,6.1-0.3l30.2,17.4c0.2,0.1,0.4,0.3,0.6,0.5c0.8-0.9,0.6-2-0.6-2.7l-30.2-17.4
					c-1.6-0.9-4.3-0.8-6.1,0.3c-1.5,0.9-1.9,2.1-1,3C434.4,192.2,434.7,191.9,435.1,191.7z"/>
			</g>
			<path class="st14" d="M478.5,202.6l-30.2-17.4c-1.6-0.9-1.4-2.5,0.4-3.5l0,0c1.8-1,4.5-1.1,6.1-0.3l30.2,17.4
				c1.6,0.9,1.4,2.5-0.4,3.5l0,0C482.7,203.4,480,203.5,478.5,202.6z"/>
			<g>
				<linearGradient id="SVGID_12_" gradientUnits="userSpaceOnUse" x1="388.781" y1="171.1057" x2="541.866" y2="209.2437">
					<stop  offset="0" style="stop-color:#131060"/>
					<stop  offset="0.1366" style="stop-color:#141062"/>
					<stop  offset="0.2076" style="stop-color:#19106A"/>
					<stop  offset="0.2636" style="stop-color:#221078"/>
					<stop  offset="0.3116" style="stop-color:#2E0F8B"/>
					<stop  offset="0.3547" style="stop-color:#3E0FA3"/>
					<stop  offset="0.3941" style="stop-color:#510EC2"/>
					<stop  offset="0.43" style="stop-color:#680DE5"/>
					<stop  offset="0.4464" style="stop-color:#740DF8"/>
					<stop  offset="0.4617" style="stop-color:#7A14F0"/>
					<stop  offset="0.5528" style="stop-color:#9B3CC3"/>
					<stop  offset="0.6445" style="stop-color:#B75D9D"/>
					<stop  offset="0.7355" style="stop-color:#CC7680"/>
					<stop  offset="0.8256" style="stop-color:#DC886C"/>
					<stop  offset="0.9142" style="stop-color:#E5935F"/>
					<stop  offset="1" style="stop-color:#E8975B"/>
				</linearGradient>
				<path class="st16" d="M448.7,183.8c1.8-1,4.5-1.1,6.1-0.3L485,201c0.2,0.1,0.4,0.3,0.6,0.5c0.8-0.9,0.6-2-0.6-2.7l-30.2-17.4
					c-1.6-0.9-4.3-0.8-6.1,0.3c-1.5,0.9-1.9,2.1-1,3C447.9,184.4,448.2,184.1,448.7,183.8z"/>
			</g>
			<path class="st14" d="M492,194.8l-30.2-17.4c-1.6-0.9-1.4-2.5,0.4-3.5l0,0c1.8-1,4.5-1.1,6.1-0.3l30.2,17.4
				c1.6,0.9,1.4,2.5-0.4,3.5l0,0C496.3,195.6,493.6,195.7,492,194.8z"/>
			<g>
				<linearGradient id="SVGID_13_" gradientUnits="userSpaceOnUse" x1="402.3322" y1="163.2819" x2="555.4172" y2="201.4199">
					<stop  offset="0" style="stop-color:#131060"/>
					<stop  offset="0.1366" style="stop-color:#141062"/>
					<stop  offset="0.2076" style="stop-color:#19106A"/>
					<stop  offset="0.2636" style="stop-color:#221078"/>
					<stop  offset="0.3116" style="stop-color:#2E0F8B"/>
					<stop  offset="0.3547" style="stop-color:#3E0FA3"/>
					<stop  offset="0.3941" style="stop-color:#510EC2"/>
					<stop  offset="0.43" style="stop-color:#680DE5"/>
					<stop  offset="0.4464" style="stop-color:#740DF8"/>
					<stop  offset="0.4617" style="stop-color:#7A14F0"/>
					<stop  offset="0.5528" style="stop-color:#9B3CC3"/>
					<stop  offset="0.6445" style="stop-color:#B75D9D"/>
					<stop  offset="0.7355" style="stop-color:#CC7680"/>
					<stop  offset="0.8256" style="stop-color:#DC886C"/>
					<stop  offset="0.9142" style="stop-color:#E5935F"/>
					<stop  offset="1" style="stop-color:#E8975B"/>
				</linearGradient>
				<path class="st17" d="M462.2,176c1.8-1,4.5-1.1,6.1-0.3l30.2,17.4c0.2,0.1,0.4,0.3,0.6,0.5c0.8-0.9,0.6-2-0.6-2.7l-30.2-17.4
					c-1.6-0.9-4.3-0.8-6.1,0.3c-1.5,0.9-1.9,2.1-1,3C461.5,176.5,461.8,176.3,462.2,176z"/>
			</g>
			<g>
				<path class="st18" d="M441.1,274.3l-0.3-0.2c-1.1-0.6-2-2.4-2-3.8v-5.1c0-1.5,0.9-2.2,2-1.5l0.3,0.2c1.1,0.6,2,2.4,2,3.8v5.1
					C443.1,274.2,442.2,274.9,441.1,274.3z"/>
				<path class="st4" d="M441.1,289.3l-0.3-0.2c-1.1-0.6-2-2.4-2-3.8v-5.1c0-1.5,0.9-2.2,2-1.5l0.3,0.2c1.1,0.6,2,2.4,2,3.8v5.1
					C443.1,289.2,442.2,289.9,441.1,289.3z"/>
				<path class="st18" d="M441.1,304.3l-0.3-0.2c-1.1-0.6-2-2.4-2-3.8v-5.1c0-1.5,0.9-2.2,2-1.5l0.3,0.2c1.1,0.6,2,2.4,2,3.8v5.1
					C443.1,304.3,442.2,304.9,441.1,304.3z"/>
				<path class="st4" d="M441.1,319.3l-0.3-0.2c-1.1-0.6-2-2.4-2-3.8v-5.1c0-1.5,0.9-2.2,2-1.5l0.3,0.2c1.1,0.6,2,2.4,2,3.8v5.1
					C443.1,319.3,442.2,320,441.1,319.3z"/>
				<path class="st5" d="M441.1,334.3l-0.3-0.2c-1.1-0.6-2-2.4-2-3.8v-5.1c0-1.5,0.9-2.2,2-1.5l0.3,0.2c1.1,0.6,2,2.4,2,3.8v5.1
					C443.1,334.3,442.2,335,441.1,334.3z"/>
				<path class="st4" d="M441.1,349.4l-0.3-0.2c-1.1-0.6-2-2.4-2-3.8v-5.1c0-1.5,0.9-2.2,2-1.5l0.3,0.2c1.1,0.6,2,2.4,2,3.8v5.1
					C443.1,349.3,442.2,350,441.1,349.4z"/>
				<path class="st4" d="M441.1,364.4l-0.3-0.2c-1.1-0.6-2-2.4-2-3.8v-5.1c0-1.5,0.9-2.2,2-1.5l0.3,0.2c1.1,0.6,2,2.4,2,3.8v5.1
					C443.1,364.3,442.2,365,441.1,364.4z"/>
				<path class="st4" d="M441.1,379.4l-0.3-0.2c-1.1-0.6-2-2.4-2-3.8v-5.1c0-1.5,0.9-2.2,2-1.5l0.3,0.2c1.1,0.6,2,2.4,2,3.8v5.1
					C443.1,379.4,442.2,380,441.1,379.4z"/>
				<path class="st4" d="M441.1,394.4l-0.3-0.2c-1.1-0.6-2-2.4-2-3.8v-5.1c0-1.5,0.9-2.2,2-1.5l0.3,0.2c1.1,0.6,2,2.4,2,3.8v5.1
					C443.1,394.4,442.2,395.1,441.1,394.4z"/>
				<path class="st19" d="M431.4,268.7l-0.3-0.2c-1.1-0.6-2-2.4-2-3.8v-5.1c0-1.5,0.9-2.2,2-1.5l0.3,0.2c1.1,0.6,2,2.4,2,3.8v5.1
					C433.4,268.6,432.5,269.3,431.4,268.7z"/>
				<path class="st4" d="M431.4,283.7l-0.3-0.2c-1.1-0.6-2-2.4-2-3.8v-5.1c0-1.5,0.9-2.2,2-1.5l0.3,0.2c1.1,0.6,2,2.4,2,3.8v5.1
					C433.4,283.6,432.5,284.3,431.4,283.7z"/>
				<path class="st4" d="M431.4,298.7l-0.3-0.2c-1.1-0.6-2-2.4-2-3.8v-5.1c0-1.5,0.9-2.2,2-1.5l0.3,0.2c1.1,0.6,2,2.4,2,3.8v5.1
					C433.4,298.7,432.5,299.4,431.4,298.7z"/>
				<path class="st4" d="M431.4,313.7l-0.3-0.2c-1.1-0.6-2-2.4-2-3.8v-5.1c0-1.5,0.9-2.2,2-1.5l0.3,0.2c1.1,0.6,2,2.4,2,3.8v5.1
					C433.4,313.7,432.5,314.4,431.4,313.7z"/>
				<path class="st4" d="M431.4,328.8l-0.3-0.2c-1.1-0.6-2-2.4-2-3.8v-5.1c0-1.5,0.9-2.2,2-1.5l0.3,0.2c1.1,0.6,2,2.4,2,3.8v5.1
					C433.4,328.7,432.5,329.4,431.4,328.8z"/>
				<path class="st19" d="M431.4,343.8l-0.3-0.2c-1.1-0.6-2-2.4-2-3.8v-5.1c0-1.5,0.9-2.2,2-1.5l0.3,0.2c1.1,0.6,2,2.4,2,3.8v5.1
					C433.4,343.7,432.5,344.4,431.4,343.8z"/>
				<path class="st4" d="M431.4,358.8l-0.3-0.2c-1.1-0.6-2-2.4-2-3.8v-5.1c0-1.5,0.9-2.2,2-1.5l0.3,0.2c1.1,0.6,2,2.4,2,3.8v5.1
					C433.4,358.8,432.5,359.4,431.4,358.8z"/>
				<path class="st4" d="M431.4,373.8l-0.3-0.2c-1.1-0.6-2-2.4-2-3.8v-5.1c0-1.5,0.9-2.2,2-1.5l0.3,0.2c1.1,0.6,2,2.4,2,3.8v5.1
					C433.4,373.8,432.5,374.5,431.4,373.8z"/>
				<path class="st19" d="M431.4,388.8l-0.3-0.2c-1.1-0.6-2-2.4-2-3.8v-5.1c0-1.5,0.9-2.2,2-1.5l0.3,0.2c1.1,0.6,2,2.4,2,3.8v5.1
					C433.4,388.8,432.5,389.5,431.4,388.8z"/>
				<path class="st5" d="M421.8,263.1l-0.3-0.2c-1.1-0.6-2-2.4-2-3.8V254c0-1.5,0.9-2.2,2-1.5l0.3,0.2c1.1,0.6,2,2.4,2,3.8v5.1
					C423.8,263,422.9,263.7,421.8,263.1z"/>
				<path class="st5" d="M421.8,278.1l-0.3-0.2c-1.1-0.6-2-2.4-2-3.8V269c0-1.5,0.9-2.2,2-1.5l0.3,0.2c1.1,0.6,2,2.4,2,3.8v5.1
					C423.8,278.1,422.9,278.7,421.8,278.1z"/>
				<path class="st19" d="M421.8,293.1l-0.3-0.2c-1.1-0.6-2-2.4-2-3.8V284c0-1.5,0.9-2.2,2-1.5l0.3,0.2c1.1,0.6,2,2.4,2,3.8v5.1
					C423.8,293.1,422.9,293.8,421.8,293.1z"/>
				<path class="st5" d="M421.8,308.1l-0.3-0.2c-1.1-0.6-2-2.4-2-3.8V299c0-1.5,0.9-2.2,2-1.5l0.3,0.2c1.1,0.6,2,2.4,2,3.8v5.1
					C423.8,308.1,422.9,308.8,421.8,308.1z"/>
				<path class="st19" d="M421.8,323.2l-0.3-0.2c-1.1-0.6-2-2.4-2-3.8v-5.1c0-1.5,0.9-2.2,2-1.5l0.3,0.2c1.1,0.6,2,2.4,2,3.8v5.1
					C423.8,323.1,422.9,323.8,421.8,323.2z"/>
				<path class="st4" d="M421.8,338.2l-0.3-0.2c-1.1-0.6-2-2.4-2-3.8v-5.1c0-1.5,0.9-2.2,2-1.5l0.3,0.2c1.1,0.6,2,2.4,2,3.8v5.1
					C423.8,338.1,422.9,338.8,421.8,338.2z"/>
				<path class="st18" d="M421.8,353.2l-0.3-0.2c-1.1-0.6-2-2.4-2-3.8v-5.1c0-1.5,0.9-2.2,2-1.5l0.3,0.2c1.1,0.6,2,2.4,2,3.8v5.1
					C423.8,353.2,422.9,353.8,421.8,353.2z"/>
				<path class="st19" d="M421.8,368.2l-0.3-0.2c-1.1-0.6-2-2.4-2-3.8v-5.1c0-1.5,0.9-2.2,2-1.5l0.3,0.2c1.1,0.6,2,2.4,2,3.8v5.1
					C423.8,368.2,422.9,368.9,421.8,368.2z"/>
				<path class="st19" d="M421.8,383.2l-0.3-0.2c-1.1-0.6-2-2.4-2-3.8v-5.1c0-1.5,0.9-2.2,2-1.5l0.3,0.2c1.1,0.6,2,2.4,2,3.8v5.1
					C423.8,383.2,422.9,383.9,421.8,383.2z"/>
				<path class="st4" d="M412.1,257.5l-0.3-0.2c-1.1-0.6-2-2.4-2-3.8v-5.1c0-1.5,0.9-2.2,2-1.5l0.3,0.2c1.1,0.6,2,2.4,2,3.8v5.1
					C414.1,257.4,413.2,258.1,412.1,257.5z"/>
				<path class="st19" d="M412.1,272.5l-0.3-0.2c-1.1-0.6-2-2.4-2-3.8v-5.1c0-1.5,0.9-2.2,2-1.5l0.3,0.2c1.1,0.6,2,2.4,2,3.8v5.1
					C414.1,272.5,413.2,273.1,412.1,272.5z"/>
				<path class="st19" d="M412.1,287.5l-0.3-0.2c-1.1-0.6-2-2.4-2-3.8v-5.1c0-1.5,0.9-2.2,2-1.5l0.3,0.2c1.1,0.6,2,2.4,2,3.8v5.1
					C414.1,287.5,413.2,288.2,412.1,287.5z"/>
				<path class="st4" d="M412.1,302.6l-0.3-0.2c-1.1-0.6-2-2.4-2-3.8v-5.1c0-1.5,0.9-2.2,2-1.5l0.3,0.2c1.1,0.6,2,2.4,2,3.8v5.1
					C414.1,302.5,413.2,303.2,412.1,302.6z"/>
				<path class="st4" d="M412.1,317.6l-0.3-0.2c-1.1-0.6-2-2.4-2-3.8v-5.1c0-1.5,0.9-2.2,2-1.5l0.3,0.2c1.1,0.6,2,2.4,2,3.8v5.1
					C414.1,317.5,413.2,318.2,412.1,317.6z"/>
				<path class="st19" d="M412.1,332.6l-0.3-0.2c-1.1-0.6-2-2.4-2-3.8v-5.1c0-1.5,0.9-2.2,2-1.5l0.3,0.2c1.1,0.6,2,2.4,2,3.8v5.1
					C414.1,332.5,413.2,333.2,412.1,332.6z"/>
				<path class="st4" d="M412.1,347.6l-0.3-0.2c-1.1-0.6-2-2.4-2-3.8v-5.1c0-1.5,0.9-2.2,2-1.5l0.3,0.2c1.1,0.6,2,2.4,2,3.8v5.1
					C414.1,347.6,413.2,348.2,412.1,347.6z"/>
				<path class="st4" d="M412.1,362.6l-0.3-0.2c-1.1-0.6-2-2.4-2-3.8v-5.1c0-1.5,0.9-2.2,2-1.5l0.3,0.2c1.1,0.6,2,2.4,2,3.8v5.1
					C414.1,362.6,413.2,363.3,412.1,362.6z"/>
				<path class="st4" d="M412.1,377.7l-0.3-0.2c-1.1-0.6-2-2.4-2-3.8v-5.1c0-1.5,0.9-2.2,2-1.5l0.3,0.2c1.1,0.6,2,2.4,2,3.8v5.1
					C414.1,377.6,413.2,378.3,412.1,377.7z"/>
				<path class="st4" d="M402.4,251.9l-0.3-0.2c-1.1-0.6-2-2.4-2-3.8v-5.1c0-1.5,0.9-2.2,2-1.5l0.3,0.2c1.1,0.6,2,2.4,2,3.8v5.1
					C404.4,251.9,403.5,252.5,402.4,251.9z"/>
				<path class="st4" d="M402.4,266.9l-0.3-0.2c-1.1-0.6-2-2.4-2-3.8v-5.1c0-1.5,0.9-2.2,2-1.5l0.3,0.2c1.1,0.6,2,2.4,2,3.8v5.1
					C404.4,266.9,403.5,267.6,402.4,266.9z"/>
				<path class="st19" d="M402.4,281.9l-0.3-0.2c-1.1-0.6-2-2.4-2-3.8v-5.1c0-1.5,0.9-2.2,2-1.5l0.3,0.2c1.1,0.6,2,2.4,2,3.8v5.1
					C404.4,281.9,403.5,282.6,402.4,281.9z"/>
				<path class="st18" d="M402.4,297l-0.3-0.2c-1.1-0.6-2-2.4-2-3.8v-5.1c0-1.5,0.9-2.2,2-1.5l0.3,0.2c1.1,0.6,2,2.4,2,3.8v5.1
					C404.4,296.9,403.5,297.6,402.4,297z"/>
				<path class="st19" d="M402.4,312l-0.3-0.2c-1.1-0.6-2-2.4-2-3.8v-5.1c0-1.5,0.9-2.2,2-1.5l0.3,0.2c1.1,0.6,2,2.4,2,3.8v5.1
					C404.4,311.9,403.5,312.6,402.4,312z"/>
				<path class="st4" d="M402.4,327l-0.3-0.2c-1.1-0.6-2-2.4-2-3.8v-5.1c0-1.5,0.9-2.2,2-1.5l0.3,0.2c1.1,0.6,2,2.4,2,3.8v5.1
					C404.4,327,403.5,327.6,402.4,327z"/>
				<path class="st4" d="M402.4,342l-0.3-0.2c-1.1-0.6-2-2.4-2-3.8v-5.1c0-1.5,0.9-2.2,2-1.5l0.3,0.2c1.1,0.6,2,2.4,2,3.8v5.1
					C404.4,342,403.5,342.7,402.4,342z"/>
				<path class="st5" d="M402.4,357l-0.3-0.2c-1.1-0.6-2-2.4-2-3.8v-5.1c0-1.5,0.9-2.2,2-1.5l0.3,0.2c1.1,0.6,2,2.4,2,3.8v5.1
					C404.4,357,403.5,357.7,402.4,357z"/>
				<path class="st5" d="M402.4,372.1l-0.3-0.2c-1.1-0.6-2-2.4-2-3.8V363c0-1.5,0.9-2.2,2-1.5l0.3,0.2c1.1,0.6,2,2.4,2,3.8v5.1
					C404.4,372,403.5,372.7,402.4,372.1z"/>
			</g>
		</g>
		<g>
			
				<linearGradient id="SVGID_14_" gradientUnits="userSpaceOnUse" x1="100.8384" y1="-796.3888" x2="143.4813" y2="-796.3888" gradientTransform="matrix(0.866 -0.5 0 1.1547 504.4145 1298.046)">
				<stop  offset="0" style="stop-color:#E39A65"/>
				<stop  offset="1" style="stop-color:#E95F8D"/>
			</linearGradient>
			<path class="st20" d="M592.9,420.9c-0.4,0-0.8-0.2-1-0.6c-0.3-0.6-0.1-1.3,0.4-1.6l23.5-13.6c5.8-3.3,10.4-11.4,10.4-18.1V227.7
				c0-3-0.9-5.1-2.6-6.1c-1.7-1-4-0.7-6.6,0.8L593.5,236c-0.6,0.3-1.3,0.1-1.6-0.4c-0.3-0.6-0.1-1.3,0.4-1.6l23.5-13.6
				c3.3-1.9,6.5-2.2,9-0.8c2.5,1.4,3.8,4.3,3.8,8.2v159.3c0,7.4-5.2,16.4-11.6,20.1l-23.5,13.6C593.3,420.9,593.1,420.9,592.9,420.9
				z"/>
			
				<linearGradient id="SVGID_15_" gradientUnits="userSpaceOnUse" x1="115.9142" y1="-783.378" x2="158.5571" y2="-783.378" gradientTransform="matrix(0.866 -0.5 0 1.1547 504.4145 1298.046)">
				<stop  offset="0" style="stop-color:#E39A65"/>
				<stop  offset="1" style="stop-color:#E95F8D"/>
			</linearGradient>
			<path class="st21" d="M606,428.4c-0.4,0-0.8-0.2-1-0.6c-0.3-0.6-0.1-1.3,0.4-1.6l23.5-13.6c5.8-3.3,10.4-11.4,10.4-18.1V235.2
				c0-3-0.9-5.1-2.6-6.1c-1.7-1-4-0.7-6.6,0.8l-23.5,13.6c-0.6,0.3-1.3,0.1-1.6-0.4c-0.3-0.6-0.1-1.3,0.4-1.6l23.5-13.6
				c3.3-1.9,6.5-2.2,9-0.8c2.5,1.4,3.8,4.3,3.8,8.2v159.3c0,7.4-5.2,16.4-11.6,20.1l-23.5,13.6C606.4,428.4,606.2,428.4,606,428.4z"
				/>
			
				<linearGradient id="SVGID_16_" gradientUnits="userSpaceOnUse" x1="130.9898" y1="-770.3685" x2="173.6327" y2="-770.3685" gradientTransform="matrix(0.866 -0.5 0 1.1547 504.4145 1298.046)">
				<stop  offset="0" style="stop-color:#E39A65"/>
				<stop  offset="1" style="stop-color:#E95F8D"/>
			</linearGradient>
			<path class="st22" d="M619,435.9c-0.4,0-0.8-0.2-1-0.6c-0.3-0.6-0.1-1.3,0.4-1.6l23.5-13.6c5.8-3.3,10.4-11.4,10.4-18.1V242.7
				c0-3-0.9-5.1-2.6-6.1c-1.7-1-4.1-0.7-6.6,0.8L619.6,251c-0.6,0.3-1.3,0.1-1.6-0.4c-0.3-0.6-0.1-1.3,0.4-1.6l23.5-13.6
				c3.3-1.9,6.5-2.2,9-0.8c2.5,1.4,3.8,4.3,3.8,8.2V402c0,7.4-5.2,16.4-11.6,20.1l-23.5,13.6C619.4,435.8,619.2,435.9,619,435.9z"/>
			
				<linearGradient id="SVGID_17_" gradientUnits="userSpaceOnUse" x1="146.0655" y1="-757.3591" x2="188.7085" y2="-757.3591" gradientTransform="matrix(0.866 -0.5 0 1.1547 504.4145 1298.046)">
				<stop  offset="0" style="stop-color:#E39A65"/>
				<stop  offset="1" style="stop-color:#E95F8D"/>
			</linearGradient>
			<path class="st23" d="M632.1,443.4c-0.4,0-0.8-0.2-1-0.6c-0.3-0.6-0.1-1.3,0.4-1.6l23.5-13.6c5.8-3.3,10.4-11.4,10.4-18.1V250.2
				c0-3-0.9-5.1-2.6-6.1c-1.7-1-4-0.7-6.6,0.8l-23.5,13.6c-0.6,0.3-1.3,0.1-1.6-0.4c-0.3-0.6-0.1-1.3,0.4-1.6l23.5-13.6
				c3.3-1.9,6.5-2.2,9-0.8c2.5,1.4,3.8,4.3,3.8,8.2v159.3c0,7.4-5.2,16.4-11.6,20.1l-23.5,13.6C632.5,443.3,632.3,443.4,632.1,443.4
				z"/>
			
				<linearGradient id="SVGID_18_" gradientUnits="userSpaceOnUse" x1="161.1404" y1="-744.3495" x2="203.7831" y2="-744.3495" gradientTransform="matrix(0.866 -0.5 0 1.1547 504.4145 1298.046)">
				<stop  offset="0" style="stop-color:#E39A65"/>
				<stop  offset="1" style="stop-color:#E95F8D"/>
			</linearGradient>
			<path class="st24" d="M645.1,450.9c-0.4,0-0.8-0.2-1-0.6c-0.3-0.6-0.1-1.3,0.4-1.6l23.5-13.6c5.8-3.3,10.4-11.4,10.4-18.1V257.7
				c0-3-0.9-5.1-2.6-6.1c-1.7-1-4-0.7-6.6,0.8l-23.5,13.6c-0.6,0.3-1.3,0.1-1.6-0.4c-0.3-0.6-0.1-1.3,0.4-1.6l23.5-13.6
				c3.3-1.9,6.5-2.2,9-0.8c2.5,1.4,3.8,4.3,3.8,8.2V417c0,7.4-5.2,16.4-11.6,20.1l-23.5,13.6C645.6,450.8,645.3,450.9,645.1,450.9z"
				/>
			
				<linearGradient id="SVGID_19_" gradientUnits="userSpaceOnUse" x1="176.2158" y1="-731.3394" x2="218.8587" y2="-731.3394" gradientTransform="matrix(0.866 -0.5 0 1.1547 504.4145 1298.046)">
				<stop  offset="0" style="stop-color:#E39A65"/>
				<stop  offset="1" style="stop-color:#E95F8D"/>
			</linearGradient>
			<path class="st25" d="M658.2,458.3c-0.4,0-0.8-0.2-1-0.6c-0.3-0.6-0.1-1.3,0.4-1.6l23.5-13.6c5.8-3.3,10.4-11.4,10.4-18.1V265.2
				c0-3-0.9-5.1-2.6-6.1c-1.7-1-4-0.7-6.6,0.8l-23.5,13.6c-0.6,0.3-1.3,0.1-1.6-0.4c-0.3-0.6-0.1-1.3,0.4-1.6l23.5-13.6
				c3.3-1.9,6.5-2.2,9-0.8c2.5,1.4,3.8,4.3,3.8,8.2v159.3c0,7.4-5.2,16.4-11.6,20.1l-23.5,13.6C658.6,458.3,658.4,458.3,658.2,458.3
				z"/>
		</g>
		
			<linearGradient id="SVGID_20_" gradientUnits="userSpaceOnUse" x1="-600.7634" y1="461.0009" x2="-339.7886" y2="461.0009" gradientTransform="matrix(-1 0 0 1 266.1368 0)">
			<stop  offset="0" style="stop-color:#E39A65"/>
			<stop  offset="1" style="stop-color:#E95F8D"/>
		</linearGradient>
		<path class="st26" d="M671.6,536.2c-2.4,0-4.8-0.6-7-1.9l-58.1-34.6c-0.6-0.3-0.7-1.1-0.4-1.6c0.3-0.6,1.1-0.7,1.6-0.4l58.1,34.6
			c3.5,2.1,7.9,2.1,11.4,0.1l185.6-107.4c1.1-0.6,1.7-1.7,1.7-3c0-1.2-0.6-2.3-1.7-3l-52.1-31c-0.6-0.3-0.7-1.1-0.4-1.6
			c0.3-0.6,1.1-0.8,1.6-0.4l52.1,31c1.8,1.1,2.9,2.9,2.8,5c0,2.1-1.1,4-2.9,5L678.4,534.4C676.3,535.6,673.9,536.2,671.6,536.2z"/>
		<g>
			<g>
				<path class="st2" d="M582.5,537.6l-70.9-40.9c-2.6-1.5-2.3-4.1,0.7-5.9l75.1-43.5c3-1.7,7.5-1.9,10.1-0.4l70.9,40.9
					c2.6,1.5,2.3,4.1-0.7,5.9l-75.1,43.5C589.6,538.9,585.1,539.1,582.5,537.6z"/>
				<g>
					
						<linearGradient id="SVGID_21_" gradientUnits="userSpaceOnUse" x1="320.9288" y1="1615.8665" x2="320.9288" y2="1446.4703" gradientTransform="matrix(0.866 0.5 0 1.1547 354.2614 -1587.5302)">
						<stop  offset="0" style="stop-color:#2D0979"/>
						<stop  offset="1" style="stop-color:#5B04F7"/>
					</linearGradient>
					<path class="st27" d="M670.1,460.7l-75.8-43.8c-2.9-1.7-5.3-6.3-5.3-10.2V225.3c0-3.9,2.4-5.7,5.3-4l75.8,43.8
						c2.9,1.7,5.3,6.3,5.3,10.2v181.4C675.4,460.5,673,462.4,670.1,460.7z"/>
					<linearGradient id="SVGID_22_" gradientUnits="userSpaceOnUse" x1="660.6226" y1="378.5868" x2="470.6281" y2="343.9198">
						<stop  offset="0" style="stop-color:#2D0979"/>
						<stop  offset="1" style="stop-color:#5B04F7"/>
					</linearGradient>
					<path class="st28" d="M670.1,265.1l-75.8-43.8c-1.3-0.8-2.5-0.8-3.5-0.3l0,0l-86.5,49.9l4.1,15.1l78.9,224.7l86.2-49.7
						c0,0,0,0,0,0l0.2-0.1l0,0c1.1-0.7,1.8-2.2,1.8-4.3V275.3C675.4,271.3,673,266.8,670.1,265.1z"/>
					<radialGradient id="SVGID_23_" cx="531.5565" cy="222.2387" r="221.3542" gradientUnits="userSpaceOnUse">
						<stop  offset="0" style="stop-color:#E39A65"/>
						<stop  offset="0.4742" style="stop-color:#A92FFB"/>
						<stop  offset="0.5875" style="stop-color:#891CFB"/>
						<stop  offset="0.7262" style="stop-color:#6507FA"/>
						<stop  offset="1" style="stop-color:#3919BB"/>
					</radialGradient>
					<path class="st29" d="M670.1,265.1l-75.8-43.8c-1.3-0.8-2.5-0.8-3.5-0.3l0,0l-86.5,49.9l4.1,15.1l21.7,61.8l4.1,2.4l139.8-80.7
						C673,267.6,671.6,265.9,670.1,265.1z"/>
					
						<radialGradient id="SVGID_24_" cx="165.5972" cy="1523.1021" r="196.5162" gradientTransform="matrix(0.866 0.5 0 1.1547 354.2614 -1587.5302)" gradientUnits="userSpaceOnUse">
						<stop  offset="0" style="stop-color:#E39A65"/>
						<stop  offset="0.4742" style="stop-color:#A92FFB"/>
						<stop  offset="0.5875" style="stop-color:#891CFB"/>
						<stop  offset="0.7262" style="stop-color:#6507FA"/>
						<stop  offset="1" style="stop-color:#3919BB"/>
					</radialGradient>
					<path class="st30" d="M583.6,510.5l-75.8-43.8c-2.9-1.7-5.3-6.3-5.3-10.2V275.2c0-3.9,2.4-5.7,5.3-4l75.8,43.8
						c2.9,1.7,5.3,6.3,5.3,10.2v181.4C589,510.4,586.6,512.2,583.6,510.5z"/>
					
						<linearGradient id="SVGID_25_" gradientUnits="userSpaceOnUse" x1="174.0714" y1="1627.5525" x2="259.1945" y2="1608.2635" gradientTransform="matrix(0.866 0.5 0 1.1547 354.2614 -1587.5302)">
						<stop  offset="0" style="stop-color:#3919BB"/>
						<stop  offset="1" style="stop-color:#6507FA"/>
					</linearGradient>
					<path class="st31" d="M578.8,499.6l-66.3-38.3c-2.6-1.5-4.7-5.5-4.7-8.9V284c0-3.4,2.1-5,4.7-3.5l66.3,38.3
						c2.6,1.5,4.7,5.5,4.7,8.9v168.4C583.5,499.5,581.4,501.1,578.8,499.6z"/>
					
						<linearGradient id="SVGID_26_" gradientUnits="userSpaceOnUse" x1="174.0714" y1="1627.5525" x2="259.1945" y2="1608.2635" gradientTransform="matrix(0.866 0.5 0 1.1547 354.2614 -1587.5302)">
						<stop  offset="0" style="stop-color:#3919BB"/>
						<stop  offset="1" style="stop-color:#6507FA"/>
					</linearGradient>
					<path class="st32" d="M578.8,499.6l-66.3-38.3c-2.6-1.5-4.7-5.5-4.7-8.9V284c0-3.4,2.1-5,4.7-3.5l66.3,38.3
						c2.6,1.5,4.7,5.5,4.7,8.9v168.4C583.5,499.5,581.4,501.1,578.8,499.6z"/>
					<path class="st12" d="M578.8,499.6l-66.3-38.3c-2.6-1.5-4.7-5.5-4.7-8.9V284c0-3.4,2.1-5,4.7-3.5l66.3,38.3
						c2.6,1.5,4.7,5.5,4.7,8.9v168.4C583.5,499.5,581.4,501.1,578.8,499.6z"/>
					<linearGradient id="SVGID_27_" gradientUnits="userSpaceOnUse" x1="545.3866" y1="500.1705" x2="545.3866" y2="279.9201">
						<stop  offset="0" style="stop-color:#E8975B"/>
						<stop  offset="6.930405e-03" style="stop-color:#E29063"/>
						<stop  offset="6.339521e-02" style="stop-color:#B358A3"/>
						<stop  offset="0.1111" style="stop-color:#912FD1"/>
						<stop  offset="0.1476" style="stop-color:#7C16ED"/>
						<stop  offset="0.1687" style="stop-color:#740DF8"/>
						<stop  offset="0.1989" style="stop-color:#680DE5"/>
						<stop  offset="0.2662" style="stop-color:#510EC2"/>
						<stop  offset="0.3399" style="stop-color:#3E0FA3"/>
						<stop  offset="0.4203" style="stop-color:#2E0F8B"/>
						<stop  offset="0.5101" style="stop-color:#221078"/>
						<stop  offset="0.6146" style="stop-color:#19106A"/>
						<stop  offset="0.7469" style="stop-color:#141062"/>
						<stop  offset="1" style="stop-color:#131060"/>
					</linearGradient>
					<path class="st33" d="M581,498.3l-66.3-38.3c-2.6-1.5-4.7-5.5-4.7-8.9V282.7c0-1.2,0.2-2.1,0.7-2.8c-1.7,0-2.8,1.5-2.8,4.1
						v168.4c0,3.4,2.1,7.4,4.7,8.9l66.3,38.3c1.7,1,3.2,0.6,4-0.7C582.3,498.9,581.7,498.7,581,498.3z"/>
				</g>
			</g>
			<path class="st14" d="M589,286.5L558.8,269c-1.6-0.9-1.4-2.5,0.4-3.5l0,0c1.8-1,4.5-1.1,6.1-0.3l30.2,17.4
				c1.6,0.9,1.4,2.5-0.4,3.5l0,0C593.3,287.2,590.6,287.3,589,286.5z"/>
			<g>
				<linearGradient id="SVGID_28_" gradientUnits="userSpaceOnUse" x1="499.3449" y1="254.9625" x2="652.4299" y2="293.1004">
					<stop  offset="0" style="stop-color:#131060"/>
					<stop  offset="0.1366" style="stop-color:#141062"/>
					<stop  offset="0.2076" style="stop-color:#19106A"/>
					<stop  offset="0.2636" style="stop-color:#221078"/>
					<stop  offset="0.3116" style="stop-color:#2E0F8B"/>
					<stop  offset="0.3547" style="stop-color:#3E0FA3"/>
					<stop  offset="0.3941" style="stop-color:#510EC2"/>
					<stop  offset="0.43" style="stop-color:#680DE5"/>
					<stop  offset="0.4464" style="stop-color:#740DF8"/>
					<stop  offset="0.4617" style="stop-color:#7A14F0"/>
					<stop  offset="0.5528" style="stop-color:#9B3CC3"/>
					<stop  offset="0.6445" style="stop-color:#B75D9D"/>
					<stop  offset="0.7355" style="stop-color:#CC7680"/>
					<stop  offset="0.8256" style="stop-color:#DC886C"/>
					<stop  offset="0.9142" style="stop-color:#E5935F"/>
					<stop  offset="1" style="stop-color:#E8975B"/>
				</linearGradient>
				<path class="st34" d="M559.3,267.7c1.8-1,4.5-1.1,6.1-0.3l30.2,17.4c0.2,0.1,0.4,0.3,0.6,0.5c0.8-0.9,0.6-2-0.6-2.7l-30.2-17.4
					c-1.6-0.9-4.3-0.8-6.1,0.3c-1.5,0.9-1.9,2.1-1,3C558.5,268.2,558.8,267.9,559.3,267.7z"/>
			</g>
			<path class="st14" d="M602.6,278.6l-30.2-17.4c-1.6-0.9-1.4-2.5,0.4-3.5l0,0c1.8-1,4.5-1.1,6.1-0.3l30.2,17.4
				c1.6,0.9,1.4,2.5-0.4,3.5l0,0C606.9,279.4,604.1,279.5,602.6,278.6z"/>
			<g>
				<linearGradient id="SVGID_29_" gradientUnits="userSpaceOnUse" x1="512.8962" y1="247.1387" x2="665.981" y2="285.2766">
					<stop  offset="0" style="stop-color:#131060"/>
					<stop  offset="0.1366" style="stop-color:#141062"/>
					<stop  offset="0.2076" style="stop-color:#19106A"/>
					<stop  offset="0.2636" style="stop-color:#221078"/>
					<stop  offset="0.3116" style="stop-color:#2E0F8B"/>
					<stop  offset="0.3547" style="stop-color:#3E0FA3"/>
					<stop  offset="0.3941" style="stop-color:#510EC2"/>
					<stop  offset="0.43" style="stop-color:#680DE5"/>
					<stop  offset="0.4464" style="stop-color:#740DF8"/>
					<stop  offset="0.4617" style="stop-color:#7A14F0"/>
					<stop  offset="0.5528" style="stop-color:#9B3CC3"/>
					<stop  offset="0.6445" style="stop-color:#B75D9D"/>
					<stop  offset="0.7355" style="stop-color:#CC7680"/>
					<stop  offset="0.8256" style="stop-color:#DC886C"/>
					<stop  offset="0.9142" style="stop-color:#E5935F"/>
					<stop  offset="1" style="stop-color:#E8975B"/>
				</linearGradient>
				<path class="st35" d="M572.8,259.9c1.8-1,4.5-1.1,6.1-0.3l30.2,17.4c0.2,0.1,0.4,0.3,0.6,0.5c0.8-0.9,0.6-2-0.6-2.7l-30.2-17.4
					c-1.6-0.9-4.3-0.8-6.1,0.3c-1.5,0.9-1.9,2.1-1,3C572,260.4,572.4,260.1,572.8,259.9z"/>
			</g>
			<path class="st14" d="M616.1,270.8l-30.2-17.4c-1.6-0.9-1.4-2.5,0.4-3.5l0,0c1.8-1,4.5-1.1,6.1-0.3l30.2,17.4
				c1.6,0.9,1.4,2.5-0.4,3.5l0,0C620.4,271.6,617.7,271.7,616.1,270.8z"/>
			<g>
				<linearGradient id="SVGID_30_" gradientUnits="userSpaceOnUse" x1="526.4471" y1="239.3148" x2="679.5323" y2="277.4529">
					<stop  offset="0" style="stop-color:#131060"/>
					<stop  offset="0.1366" style="stop-color:#141062"/>
					<stop  offset="0.2076" style="stop-color:#19106A"/>
					<stop  offset="0.2636" style="stop-color:#221078"/>
					<stop  offset="0.3116" style="stop-color:#2E0F8B"/>
					<stop  offset="0.3547" style="stop-color:#3E0FA3"/>
					<stop  offset="0.3941" style="stop-color:#510EC2"/>
					<stop  offset="0.43" style="stop-color:#680DE5"/>
					<stop  offset="0.4464" style="stop-color:#740DF8"/>
					<stop  offset="0.4617" style="stop-color:#7A14F0"/>
					<stop  offset="0.5528" style="stop-color:#9B3CC3"/>
					<stop  offset="0.6445" style="stop-color:#B75D9D"/>
					<stop  offset="0.7355" style="stop-color:#CC7680"/>
					<stop  offset="0.8256" style="stop-color:#DC886C"/>
					<stop  offset="0.9142" style="stop-color:#E5935F"/>
					<stop  offset="1" style="stop-color:#E8975B"/>
				</linearGradient>
				<path class="st36" d="M586.4,252c1.8-1,4.5-1.1,6.1-0.3l30.2,17.4c0.2,0.1,0.4,0.3,0.6,0.5c0.8-0.9,0.6-2-0.6-2.7l-30.2-17.4
					c-1.6-0.9-4.3-0.8-6.1,0.3c-1.5,0.9-1.9,2.1-1,3C585.6,252.6,585.9,252.3,586.4,252z"/>
			</g>
			<g>
				<path class="st18" d="M565.2,350.3l-0.3-0.2c-1.1-0.6-2-2.4-2-3.8v-5.1c0-1.5,0.9-2.2,2-1.5l0.3,0.2c1.1,0.6,2,2.4,2,3.8v5.1
					C567.3,350.3,566.3,350.9,565.2,350.3z"/>
				<path class="st4" d="M565.2,365.3l-0.3-0.2c-1.1-0.6-2-2.4-2-3.8v-5.1c0-1.5,0.9-2.2,2-1.5l0.3,0.2c1.1,0.6,2,2.4,2,3.8v5.1
					C567.3,365.3,566.3,366,565.2,365.3z"/>
				<path class="st18" d="M565.2,380.3l-0.3-0.2c-1.1-0.6-2-2.4-2-3.8v-5.1c0-1.5,0.9-2.2,2-1.5l0.3,0.2c1.1,0.6,2,2.4,2,3.8v5.1
					C567.3,380.3,566.3,381,565.2,380.3z"/>
				<path class="st4" d="M565.2,395.4l-0.3-0.2c-1.1-0.6-2-2.4-2-3.8v-5.1c0-1.5,0.9-2.2,2-1.5l0.3,0.2c1.1,0.6,2,2.4,2,3.8v5.1
					C567.3,395.3,566.3,396,565.2,395.4z"/>
				<path class="st5" d="M565.2,410.4l-0.3-0.2c-1.1-0.6-2-2.4-2-3.8v-5.1c0-1.5,0.9-2.2,2-1.5l0.3,0.2c1.1,0.6,2,2.4,2,3.8v5.1
					C567.3,410.3,566.3,411,565.2,410.4z"/>
				<path class="st4" d="M565.2,425.4l-0.3-0.2c-1.1-0.6-2-2.4-2-3.8v-5.1c0-1.5,0.9-2.2,2-1.5l0.3,0.2c1.1,0.6,2,2.4,2,3.8v5.1
					C567.3,425.4,566.3,426,565.2,425.4z"/>
				<path class="st4" d="M565.2,440.4l-0.3-0.2c-1.1-0.6-2-2.4-2-3.8v-5.1c0-1.5,0.9-2.2,2-1.5l0.3,0.2c1.1,0.6,2,2.4,2,3.8v5.1
					C567.3,440.4,566.3,441.1,565.2,440.4z"/>
				<path class="st4" d="M565.2,455.4l-0.3-0.2c-1.1-0.6-2-2.4-2-3.8v-5.1c0-1.5,0.9-2.2,2-1.5l0.3,0.2c1.1,0.6,2,2.4,2,3.8v5.1
					C567.3,455.4,566.3,456.1,565.2,455.4z"/>
				<path class="st4" d="M565.2,470.5l-0.3-0.2c-1.1-0.6-2-2.4-2-3.8v-5.1c0-1.5,0.9-2.2,2-1.5l0.3,0.2c1.1,0.6,2,2.4,2,3.8v5.1
					C567.3,470.4,566.3,471.1,565.2,470.5z"/>
				<path class="st19" d="M555.6,344.7l-0.3-0.2c-1.1-0.6-2-2.4-2-3.8v-5.1c0-1.5,0.9-2.2,2-1.5l0.3,0.2c1.1,0.6,2,2.4,2,3.8v5.1
					C557.6,344.7,556.7,345.3,555.6,344.7z"/>
				<path class="st4" d="M555.6,359.7l-0.3-0.2c-1.1-0.6-2-2.4-2-3.8v-5.1c0-1.5,0.9-2.2,2-1.5l0.3,0.2c1.1,0.6,2,2.4,2,3.8v5.1
					C557.6,359.7,556.7,360.4,555.6,359.7z"/>
				<path class="st4" d="M555.6,374.7l-0.3-0.2c-1.1-0.6-2-2.4-2-3.8v-5.1c0-1.5,0.9-2.2,2-1.5l0.3,0.2c1.1,0.6,2,2.4,2,3.8v5.1
					C557.6,374.7,556.7,375.4,555.6,374.7z"/>
				<path class="st4" d="M555.6,389.8l-0.3-0.2c-1.1-0.6-2-2.4-2-3.8v-5.1c0-1.5,0.9-2.2,2-1.5l0.3,0.2c1.1,0.6,2,2.4,2,3.8v5.1
					C557.6,389.7,556.7,390.4,555.6,389.8z"/>
				<path class="st4" d="M555.6,404.8l-0.3-0.2c-1.1-0.6-2-2.4-2-3.8v-5.1c0-1.5,0.9-2.2,2-1.5l0.3,0.2c1.1,0.6,2,2.4,2,3.8v5.1
					C557.6,404.7,556.7,405.4,555.6,404.8z"/>
				<path class="st19" d="M555.6,419.8l-0.3-0.2c-1.1-0.6-2-2.4-2-3.8v-5.1c0-1.5,0.9-2.2,2-1.5l0.3,0.2c1.1,0.6,2,2.4,2,3.8v5.1
					C557.6,419.8,556.7,420.4,555.6,419.8z"/>
				<path class="st4" d="M555.6,434.8l-0.3-0.2c-1.1-0.6-2-2.4-2-3.8v-5.1c0-1.5,0.9-2.2,2-1.5l0.3,0.2c1.1,0.6,2,2.4,2,3.8v5.1
					C557.6,434.8,556.7,435.5,555.6,434.8z"/>
				<path class="st4" d="M555.6,449.9l-0.3-0.2c-1.1-0.6-2-2.4-2-3.8v-5.1c0-1.5,0.9-2.2,2-1.5l0.3,0.2c1.1,0.6,2,2.4,2,3.8v5.1
					C557.6,449.8,556.7,450.5,555.6,449.9z"/>
				<path class="st19" d="M555.6,464.9l-0.3-0.2c-1.1-0.6-2-2.4-2-3.8v-5.1c0-1.5,0.9-2.2,2-1.5l0.3,0.2c1.1,0.6,2,2.4,2,3.8v5.1
					C557.6,464.8,556.7,465.5,555.6,464.9z"/>
				<path class="st5" d="M545.9,339.1l-0.3-0.2c-1.1-0.6-2-2.4-2-3.8V330c0-1.5,0.9-2.2,2-1.5l0.3,0.2c1.1,0.6,2,2.4,2,3.8v5.1
					C547.9,339.1,547,339.8,545.9,339.1z"/>
				<path class="st5" d="M545.9,354.1l-0.3-0.2c-1.1-0.6-2-2.4-2-3.8V345c0-1.5,0.9-2.2,2-1.5l0.3,0.2c1.1,0.6,2,2.4,2,3.8v5.1
					C547.9,354.1,547,354.8,545.9,354.1z"/>
				<path class="st19" d="M545.9,369.2l-0.3-0.2c-1.1-0.6-2-2.4-2-3.8v-5.1c0-1.5,0.9-2.2,2-1.5l0.3,0.2c1.1,0.6,2,2.4,2,3.8v5.1
					C547.9,369.1,547,369.8,545.9,369.2z"/>
				<path class="st5" d="M545.9,384.2l-0.3-0.2c-1.1-0.6-2-2.4-2-3.8v-5.1c0-1.5,0.9-2.2,2-1.5l0.3,0.2c1.1,0.6,2,2.4,2,3.8v5.1
					C547.9,384.1,547,384.8,545.9,384.2z"/>
				<path class="st19" d="M545.9,399.2l-0.3-0.2c-1.1-0.6-2-2.4-2-3.8v-5.1c0-1.5,0.9-2.2,2-1.5l0.3,0.2c1.1,0.6,2,2.4,2,3.8v5.1
					C547.9,399.2,547,399.8,545.9,399.2z"/>
				<path class="st4" d="M545.9,414.2l-0.3-0.2c-1.1-0.6-2-2.4-2-3.8v-5.1c0-1.5,0.9-2.2,2-1.5l0.3,0.2c1.1,0.6,2,2.4,2,3.8v5.1
					C547.9,414.2,547,414.9,545.9,414.2z"/>
				<path class="st18" d="M545.9,429.2l-0.3-0.2c-1.1-0.6-2-2.4-2-3.8v-5.1c0-1.5,0.9-2.2,2-1.5l0.3,0.2c1.1,0.6,2,2.4,2,3.8v5.1
					C547.9,429.2,547,429.9,545.9,429.2z"/>
				<path class="st19" d="M545.9,444.3l-0.3-0.2c-1.1-0.6-2-2.4-2-3.8v-5.1c0-1.5,0.9-2.2,2-1.5l0.3,0.2c1.1,0.6,2,2.4,2,3.8v5.1
					C547.9,444.2,547,444.9,545.9,444.3z"/>
				<path class="st19" d="M545.9,459.3l-0.3-0.2c-1.1-0.6-2-2.4-2-3.8v-5.1c0-1.5,0.9-2.2,2-1.5l0.3,0.2c1.1,0.6,2,2.4,2,3.8v5.1
					C547.9,459.2,547,459.9,545.9,459.3z"/>
				<path class="st4" d="M536.2,333.5l-0.3-0.2c-1.1-0.6-2-2.4-2-3.8v-5.1c0-1.5,0.9-2.2,2-1.5l0.3,0.2c1.1,0.6,2,2.4,2,3.8v5.1
					C538.2,333.5,537.3,334.2,536.2,333.5z"/>
				<path class="st19" d="M536.2,348.5l-0.3-0.2c-1.1-0.6-2-2.4-2-3.8v-5.1c0-1.5,0.9-2.2,2-1.5l0.3,0.2c1.1,0.6,2,2.4,2,3.8v5.1
					C538.2,348.5,537.3,349.2,536.2,348.5z"/>
				<path class="st19" d="M536.2,363.6l-0.3-0.2c-1.1-0.6-2-2.4-2-3.8v-5.1c0-1.5,0.9-2.2,2-1.5l0.3,0.2c1.1,0.6,2,2.4,2,3.8v5.1
					C538.2,363.5,537.3,364.2,536.2,363.6z"/>
				<path class="st4" d="M536.2,378.6l-0.3-0.2c-1.1-0.6-2-2.4-2-3.8v-5.1c0-1.5,0.9-2.2,2-1.5l0.3,0.2c1.1,0.6,2,2.4,2,3.8v5.1
					C538.2,378.5,537.3,379.2,536.2,378.6z"/>
				<path class="st4" d="M536.2,393.6l-0.3-0.2c-1.1-0.6-2-2.4-2-3.8v-5.1c0-1.5,0.9-2.2,2-1.5l0.3,0.2c1.1,0.6,2,2.4,2,3.8v5.1
					C538.2,393.6,537.3,394.2,536.2,393.6z"/>
				<path class="st19" d="M536.2,408.6l-0.3-0.2c-1.1-0.6-2-2.4-2-3.8v-5.1c0-1.5,0.9-2.2,2-1.5l0.3,0.2c1.1,0.6,2,2.4,2,3.8v5.1
					C538.2,408.6,537.3,409.3,536.2,408.6z"/>
				<path class="st4" d="M536.2,423.6l-0.3-0.2c-1.1-0.6-2-2.4-2-3.8v-5.1c0-1.5,0.9-2.2,2-1.5l0.3,0.2c1.1,0.6,2,2.4,2,3.8v5.1
					C538.2,423.6,537.3,424.3,536.2,423.6z"/>
				<path class="st4" d="M536.2,438.7l-0.3-0.2c-1.1-0.6-2-2.4-2-3.8v-5.1c0-1.5,0.9-2.2,2-1.5l0.3,0.2c1.1,0.6,2,2.4,2,3.8v5.1
					C538.2,438.6,537.3,439.3,536.2,438.7z"/>
				<path class="st4" d="M536.2,453.7l-0.3-0.2c-1.1-0.6-2-2.4-2-3.8v-5.1c0-1.5,0.9-2.2,2-1.5l0.3,0.2c1.1,0.6,2,2.4,2,3.8v5.1
					C538.2,453.6,537.3,454.3,536.2,453.7z"/>
				<path class="st4" d="M526.5,327.9l-0.3-0.2c-1.1-0.6-2-2.4-2-3.8v-5.1c0-1.5,0.9-2.2,2-1.5l0.3,0.2c1.1,0.6,2,2.4,2,3.8v5.1
					C528.5,327.9,527.6,328.6,526.5,327.9z"/>
				<path class="st4" d="M526.5,342.9l-0.3-0.2c-1.1-0.6-2-2.4-2-3.8v-5.1c0-1.5,0.9-2.2,2-1.5l0.3,0.2c1.1,0.6,2,2.4,2,3.8v5.1
					C528.5,342.9,527.6,343.6,526.5,342.9z"/>
				<path class="st19" d="M526.5,358l-0.3-0.2c-1.1-0.6-2-2.4-2-3.8v-5.1c0-1.5,0.9-2.2,2-1.5l0.3,0.2c1.1,0.6,2,2.4,2,3.8v5.1
					C528.5,357.9,527.6,358.6,526.5,358z"/>
				<path class="st18" d="M526.5,373l-0.3-0.2c-1.1-0.6-2-2.4-2-3.8v-5.1c0-1.5,0.9-2.2,2-1.5l0.3,0.2c1.1,0.6,2,2.4,2,3.8v5.1
					C528.5,372.9,527.6,373.6,526.5,373z"/>
				<path class="st19" d="M526.5,388l-0.3-0.2c-1.1-0.6-2-2.4-2-3.8v-5.1c0-1.5,0.9-2.2,2-1.5l0.3,0.2c1.1,0.6,2,2.4,2,3.8v5.1
					C528.5,388,527.6,388.6,526.5,388z"/>
				<path class="st4" d="M526.5,403l-0.3-0.2c-1.1-0.6-2-2.4-2-3.8v-5.1c0-1.5,0.9-2.2,2-1.5l0.3,0.2c1.1,0.6,2,2.4,2,3.8v5.1
					C528.5,403,527.6,403.7,526.5,403z"/>
				<path class="st4" d="M526.5,418.1l-0.3-0.2c-1.1-0.6-2-2.4-2-3.8V409c0-1.5,0.9-2.2,2-1.5l0.3,0.2c1.1,0.6,2,2.4,2,3.8v5.1
					C528.5,418,527.6,418.7,526.5,418.1z"/>
				<path class="st5" d="M526.5,433.1l-0.3-0.2c-1.1-0.6-2-2.4-2-3.8V424c0-1.5,0.9-2.2,2-1.5l0.3,0.2c1.1,0.6,2,2.4,2,3.8v5.1
					C528.5,433,527.6,433.7,526.5,433.1z"/>
				<path class="st5" d="M526.5,448.1l-0.3-0.2c-1.1-0.6-2-2.4-2-3.8V439c0-1.5,0.9-2.2,2-1.5l0.3,0.2c1.1,0.6,2,2.4,2,3.8v5.1
					C528.5,448,527.6,448.7,526.5,448.1z"/>
			</g>
		</g>
		<g>
			<linearGradient id="SVGID_31_" gradientUnits="userSpaceOnUse" x1="56.1797" y1="222.8817" x2="375.4244" y2="459.1379">
				<stop  offset="0" style="stop-color:#4F1FEC"/>
				<stop  offset="1" style="stop-color:#A92FFB"/>
			</linearGradient>
			<path class="st37" d="M188.7,440.8L3.7,334c-5.4-3.1-4.8-8.6,1.5-12.3l182-105.1c6.3-3.6,15.8-4,21.2-0.9l185,106.8
				c5.4,3.1,4.8,8.6-1.5,12.3L210,439.9C203.7,443.5,194.2,443.9,188.7,440.8z"/>
			<path class="st2" d="M188.7,440.8L3.7,334c-5.4-3.1-4.8-8.6,1.5-12.3l182-105.1c6.3-3.6,15.8-4,21.2-0.9l185,106.8
				c5.4,3.1,4.8,8.6-1.5,12.3L210,439.9C203.7,443.5,194.2,443.9,188.7,440.8z"/>
			<linearGradient id="SVGID_32_" gradientUnits="userSpaceOnUse" x1="-292.0111" y1="275.1787" x2="534.1277" y2="275.1787">
				<stop  offset="0" style="stop-color:#131060"/>
				<stop  offset="0.1366" style="stop-color:#141062"/>
				<stop  offset="0.2076" style="stop-color:#19106A"/>
				<stop  offset="0.2636" style="stop-color:#221078"/>
				<stop  offset="0.3116" style="stop-color:#2E0F8B"/>
				<stop  offset="0.3547" style="stop-color:#3E0FA3"/>
				<stop  offset="0.3941" style="stop-color:#510EC2"/>
				<stop  offset="0.43" style="stop-color:#680DE5"/>
				<stop  offset="0.4464" style="stop-color:#740DF8"/>
				<stop  offset="0.5208" style="stop-color:#7E19EB"/>
				<stop  offset="0.6598" style="stop-color:#9838C7"/>
				<stop  offset="0.8468" style="stop-color:#C26A8E"/>
				<stop  offset="1" style="stop-color:#E8975B"/>
			</linearGradient>
			<path class="st38" d="M3.7,334l4.8,2.8l178.7-103.2c6.3-3.6,15.8-4,21.2-0.9l180.2,104.1l3.3-1.9c6.3-3.6,7-9.1,1.5-12.3
				l-185-106.8c-5.4-3.1-15-2.7-21.2,0.9L5.2,321.7C-1.1,325.3-1.8,330.8,3.7,334z"/>
			<path class="st2" d="M39.3,334.2l172.5-99.6l-3.3-1.9c-5.4-3.1-15-2.7-21.2,0.9L8.5,336.7l180.2,104.1c3.8,2.2,9.7,2.7,15,1.5
				l-166-95.8C32.4,343.3,33,337.8,39.3,334.2z"/>
			<path class="st2" d="M208.4,215.7c-5.4-3.1-15-2.7-21.2,0.9L5.2,321.7c-6.3,3.6-7,9.1-1.5,12.3l4.8,2.8l178.7-103.2
				c6.3-3.6,15.8-4,21.2-0.9l3.3,1.9h0v-17L208.4,215.7z"/>
			<g>
				<g>
					<path class="st4" d="M151.3,359.7c-2.3,1.3-2.2,3.7,0.3,5.3l14.5,9.6c2.5,1.6,6.3,1.9,8.6,0.5c2.3-1.3,2.2-3.7-0.3-5.3
						l-14.5-9.6C157.4,358.7,153.5,358.4,151.3,359.7z"/>
					<path class="st5" d="M170.9,350.7c-2.3,1.3-2.2,3.7,0.3,5.3l12.7,8.4c2.5,1.6,6.3,1.9,8.6,0.5c2.3-1.3,2.2-3.7-0.3-5.3
						l-12.7-8.4C177,349.6,173.2,349.4,170.9,350.7z"/>
					<path class="st4" d="M174.5,331.1c-2.3,1.3-2.2,3.7,0.3,5.3l26.9,17.7c2.5,1.6,6.3,1.9,8.6,0.5c2.3-1.3,2.2-3.7-0.3-5.3
						l-26.9-17.7C180.6,330,176.8,329.8,174.5,331.1z"/>
					<path class="st4" d="M176.7,310.6c-2.3,1.3-2.2,3.7,0.3,5.3l42.5,27.9c2.5,1.6,6.3,1.9,8.6,0.5c2.3-1.3,2.2-3.7-0.3-5.3
						l-42.5-27.9C182.9,309.6,179,309.3,176.7,310.6z"/>
					<path class="st5" d="M199,303.3c-2.3,1.3-2.2,3.7,0.3,5.3l38,24.9c2.5,1.6,6.3,1.9,8.6,0.5c2.3-1.3,2.2-3.7-0.3-5.3l-38-24.9
						C205.1,302.2,201.3,302,199,303.3z"/>
					<path class="st4" d="M188.4,274.4c-2.3,1.3-2.2,3.7,0.3,5.3l66.4,43.6c2.5,1.6,6.3,1.9,8.6,0.5c2.3-1.3,2.2-3.7-0.3-5.3
						L197,274.9C194.5,273.3,190.7,273.1,188.4,274.4z"/>
				</g>
				<path class="st4" d="M145.8,351.1c2.4,1.6,2.6,3.9,0.3,5.2s-6,1.1-8.5-0.5c-2.4-1.6-2.6-3.9-0.3-5.2
					C139.6,349.3,143.4,349.5,145.8,351.1z"/>
				<path class="st5" d="M132.1,342.2c2.4,1.6,2.6,3.9,0.3,5.2s-6,1.1-8.5-0.5c-2.4-1.6-2.6-3.9-0.3-5.2
					C125.9,340.3,129.7,340.6,132.1,342.2z"/>
			</g>
			<g>
				<path class="st12" d="M103.8,273.7c0,1.8-1.3,4.1-2.9,5c-1.6,0.9-2.9,0.2-2.9-1.7c0-1.8,1.3-4.1,2.9-5
					C102.5,271.1,103.8,271.9,103.8,273.7z"/>
				<path class="st4" d="M115.2,267.1c0,1.8-1.3,4.1-2.9,5c-1.6,0.9-2.9,0.2-2.9-1.7c0-1.8,1.3-4.1,2.9-5
					C113.9,264.5,115.2,265.3,115.2,267.1z"/>
				<path class="st5" d="M126.6,260.6c0,1.8-1.3,4.1-2.9,5c-1.6,0.9-2.9,0.2-2.9-1.7s1.3-4.1,2.9-5
					C125.3,258,126.6,258.7,126.6,260.6z"/>
			</g>
		</g>
		<linearGradient id="SVGID_33_" gradientUnits="userSpaceOnUse" x1="53.2436" y1="470.8806" x2="321.4445" y2="470.8806">
			<stop  offset="0" style="stop-color:#E39A65"/>
			<stop  offset="1" style="stop-color:#E95F8D"/>
		</linearGradient>
		<path class="st39" d="M255.8,548.3c-2.4,0-4.7-0.6-6.8-1.8L56.1,434.7c-1.8-1-2.9-2.9-2.9-5c0-2.1,1.1-4,2.8-5l52.1-31
			c0.6-0.3,1.3-0.2,1.6,0.4c0.3,0.6,0.2,1.3-0.4,1.6l-52.1,31c-1.1,0.6-1.7,1.7-1.7,3c0,1.2,0.6,2.3,1.7,3l192.8,111.7
			c3.5,2.1,7.9,2,11.4-0.1l58.1-34.6c0.6-0.3,1.3-0.2,1.6,0.4c0.3,0.6,0.2,1.3-0.4,1.6l-58.1,34.6
			C260.6,547.6,258.2,548.3,255.8,548.3z"/>
		<g>
			<g>
				<g>
					<g>
						<g>
							<path class="st2" d="M328.2,548.1l-70.6-40.8c-2.6-1.5-2.3-4.1,0.7-5.8l74.8-43.3c3-1.7,7.5-1.9,10.1-0.4l70.6,40.8
								c2.6,1.5,2.3,4.1-0.7,5.8l-74.8,43.3C335.4,549.4,330.8,549.6,328.2,548.1z"/>
							<g>
								
									<linearGradient id="SVGID_34_" gradientUnits="userSpaceOnUse" x1="27.1364" y1="1752.4554" x2="27.1364" y2="1583.698" gradientTransform="matrix(0.866 0.5 0 1.1547 354.2614 -1587.5302)">
									<stop  offset="0" style="stop-color:#2D0979"/>
									<stop  offset="1" style="stop-color:#5B04F7"/>
								</linearGradient>
								<path class="st40" d="M415.5,471.4L340,427.8c-2.9-1.7-5.3-6.2-5.3-10.2V237c0-3.9,2.4-5.7,5.3-4l75.5,43.6
									c2.9,1.7,5.3,6.2,5.3,10.2v180.7C420.8,471.3,418.5,473.1,415.5,471.4z"/>
								<linearGradient id="SVGID_35_" gradientUnits="userSpaceOnUse" x1="406.0912" y1="389.6367" x2="216.8132" y2="355.1005">
									<stop  offset="0" style="stop-color:#2D0979"/>
									<stop  offset="1" style="stop-color:#5B04F7"/>
								</linearGradient>
								<path class="st41" d="M415.5,276.5L340,232.9c-1.3-0.8-2.5-0.8-3.4-0.3l0,0l-86.2,49.7l4.1,15L333,521.3l85.9-49.5
									c0,0,0,0,0,0l0.2-0.1l0,0c1.1-0.7,1.8-2.2,1.8-4.2V286.7C420.8,282.8,418.5,278.2,415.5,276.5z"/>
								<radialGradient id="SVGID_36_" cx="277.5117" cy="233.8782" r="220.5195" gradientUnits="userSpaceOnUse">
									<stop  offset="0" style="stop-color:#E39A65"/>
									<stop  offset="0.4742" style="stop-color:#A92FFB"/>
									<stop  offset="0.5875" style="stop-color:#891CFB"/>
									<stop  offset="0.7262" style="stop-color:#6507FA"/>
									<stop  offset="1" style="stop-color:#3919BB"/>
								</radialGradient>
								<path class="st42" d="M415.5,276.5L340,232.9c-1.3-0.8-2.5-0.8-3.4-0.3l0,0l-86.2,49.7l4.1,15L276,359l4.1,2.3l139.2-80.4
									C418.4,279,417,277.4,415.5,276.5z"/>
								
									<radialGradient id="SVGID_37_" cx="-127.6094" cy="1660.0408" r="195.7752" gradientTransform="matrix(0.866 0.5 0 1.1547 354.2614 -1587.5302)" gradientUnits="userSpaceOnUse">
									<stop  offset="0" style="stop-color:#E39A65"/>
									<stop  offset="0.4742" style="stop-color:#A92FFB"/>
									<stop  offset="0.5875" style="stop-color:#891CFB"/>
									<stop  offset="0.7262" style="stop-color:#6507FA"/>
									<stop  offset="1" style="stop-color:#3919BB"/>
								</radialGradient>
								<path class="st43" d="M329.4,521.1l-75.5-43.6c-2.9-1.7-5.3-6.2-5.3-10.2V286.6c0-3.9,2.4-5.7,5.3-4l75.5,43.6
									c2.9,1.7,5.3,6.2,5.3,10.2v180.7C334.7,521,332.3,522.8,329.4,521.1z"/>
								
									<linearGradient id="SVGID_38_" gradientUnits="userSpaceOnUse" x1="-119.1673" y1="1764.0974" x2="-34.3653" y2="1744.8812" gradientTransform="matrix(0.866 0.5 0 1.1547 354.2614 -1587.5302)">
									<stop  offset="0" style="stop-color:#3919BB"/>
									<stop  offset="1" style="stop-color:#6507FA"/>
								</linearGradient>
								<path class="st44" d="M324.6,510.2l-66-38.1c-2.6-1.5-4.6-5.5-4.6-8.9V295.4c0-3.4,2.1-5,4.6-3.5l66,38.1
									c2.6,1.5,4.6,5.5,4.6,8.9v167.8C329.3,510.1,327.2,511.7,324.6,510.2z"/>
								
									<linearGradient id="SVGID_39_" gradientUnits="userSpaceOnUse" x1="-119.1673" y1="1764.0974" x2="-34.3653" y2="1744.8812" gradientTransform="matrix(0.866 0.5 0 1.1547 354.2614 -1587.5302)">
									<stop  offset="0" style="stop-color:#3919BB"/>
									<stop  offset="1" style="stop-color:#6507FA"/>
								</linearGradient>
								<path class="st45" d="M324.6,510.2l-66-38.1c-2.6-1.5-4.6-5.5-4.6-8.9V295.4c0-3.4,2.1-5,4.6-3.5l66,38.1
									c2.6,1.5,4.6,5.5,4.6,8.9v167.8C329.3,510.1,327.2,511.7,324.6,510.2z"/>
								<path class="st12" d="M324.6,510.2l-66-38.1c-2.6-1.5-4.6-5.5-4.6-8.9V295.4c0-3.4,2.1-5,4.6-3.5l66,38.1
									c2.6,1.5,4.6,5.5,4.6,8.9v167.8C329.3,510.1,327.2,511.7,324.6,510.2z"/>
								<linearGradient id="SVGID_40_" gradientUnits="userSpaceOnUse" x1="291.2896" y1="510.7621" x2="291.2896" y2="291.3422">
									<stop  offset="0" style="stop-color:#E8975B"/>
									<stop  offset="6.930405e-03" style="stop-color:#E29063"/>
									<stop  offset="6.339521e-02" style="stop-color:#B358A3"/>
									<stop  offset="0.1111" style="stop-color:#912FD1"/>
									<stop  offset="0.1476" style="stop-color:#7C16ED"/>
									<stop  offset="0.1687" style="stop-color:#740DF8"/>
									<stop  offset="0.1989" style="stop-color:#680DE5"/>
									<stop  offset="0.2662" style="stop-color:#510EC2"/>
									<stop  offset="0.3399" style="stop-color:#3E0FA3"/>
									<stop  offset="0.4203" style="stop-color:#2E0F8B"/>
									<stop  offset="0.5101" style="stop-color:#221078"/>
									<stop  offset="0.6146" style="stop-color:#19106A"/>
									<stop  offset="0.7469" style="stop-color:#141062"/>
									<stop  offset="1" style="stop-color:#131060"/>
								</linearGradient>
								<path class="st46" d="M326.8,508.9l-66-38.1c-2.6-1.5-4.6-5.5-4.6-8.9V294.1c0-1.2,0.2-2.1,0.7-2.8c-1.7,0-2.8,1.5-2.8,4.1
									v167.8c0,3.4,2.1,7.4,4.6,8.9l66,38.1c1.7,1,3.2,0.6,4-0.7C328,509.5,327.4,509.3,326.8,508.9z"/>
							</g>
						</g>
					</g>
					<g>
						<g class="st47">
							<path class="st48" d="M324.6,433.2L300.1,419L261,441.6l68.3,39.4v-39C329.3,438.6,327.2,434.6,324.6,433.2z"/>
							<path class="st48" d="M324.6,398.8l-24.5-14.2L261,407.2l68.3,39.4v-39C329.3,404.2,327.2,400.3,324.6,398.8z"/>
							<path class="st48" d="M324.6,364.4l-24.5-14.2L261,372.8l68.3,39.4v-39C329.3,369.9,327.2,365.9,324.6,364.4z"/>
							<path class="st48" d="M324.6,330l-24.5-14.2L261,338.4l68.3,39.4v-39C329.3,335.5,327.2,331.5,324.6,330z"/>
							<path class="st48" d="M324.6,330l-54.3-31.4L261,304l68.3,39.4v-4.6C329.3,335.5,327.2,331.5,324.6,330z"/>
						</g>
						<radialGradient id="SVGID_41_" cx="241.6296" cy="316.1665" r="153.5445" gradientUnits="userSpaceOnUse">
							<stop  offset="0" style="stop-color:#E39A65"/>
							<stop  offset="0.4742" style="stop-color:#A92FFB"/>
							<stop  offset="0.5875" style="stop-color:#891CFB"/>
							<stop  offset="0.7262" style="stop-color:#6507FA"/>
							<stop  offset="1" style="stop-color:#3919BB"/>
						</radialGradient>
						<polygon class="st49" points="329.3,343.5 261,304 261,325.8 329.3,365.2 						"/>
						<radialGradient id="SVGID_42_" cx="220.9347" cy="339.4089" r="153.5444" gradientUnits="userSpaceOnUse">
							<stop  offset="0" style="stop-color:#E39A65"/>
							<stop  offset="0.4742" style="stop-color:#A92FFB"/>
							<stop  offset="0.5875" style="stop-color:#891CFB"/>
							<stop  offset="0.7262" style="stop-color:#6507FA"/>
							<stop  offset="1" style="stop-color:#3919BB"/>
						</radialGradient>
						<polygon class="st50" points="329.3,377.9 261,338.4 261,360.2 329.3,399.6 						"/>
						<radialGradient id="SVGID_43_" cx="225.3919" cy="356.6019" r="153.5441" gradientUnits="userSpaceOnUse">
							<stop  offset="0" style="stop-color:#E39A65"/>
							<stop  offset="0.4742" style="stop-color:#A92FFB"/>
							<stop  offset="0.5875" style="stop-color:#891CFB"/>
							<stop  offset="0.7262" style="stop-color:#6507FA"/>
							<stop  offset="1" style="stop-color:#3919BB"/>
						</radialGradient>
						<polygon class="st51" points="329.3,412.3 261,372.8 261,394.6 329.3,434 						"/>
						<radialGradient id="SVGID_44_" cx="221.2531" cy="366.79" r="153.5444" gradientUnits="userSpaceOnUse">
							<stop  offset="0" style="stop-color:#E39A65"/>
							<stop  offset="0.4742" style="stop-color:#A92FFB"/>
							<stop  offset="0.488" style="stop-color:#A52DFB"/>
							<stop  offset="0.5875" style="stop-color:#891CFB"/>
							<stop  offset="0.7262" style="stop-color:#6507FA"/>
							<stop  offset="1" style="stop-color:#3919BB"/>
						</radialGradient>
						<polygon class="st52" points="329.3,446.6 261,407.2 261,428.9 329.3,468.4 						"/>
						<radialGradient id="SVGID_45_" cx="289.3878" cy="354.6913" r="153.5451" gradientUnits="userSpaceOnUse">
							<stop  offset="0" style="stop-color:#E39A65"/>
							<stop  offset="0.4742" style="stop-color:#A92FFB"/>
							<stop  offset="0.5875" style="stop-color:#891CFB"/>
							<stop  offset="0.7262" style="stop-color:#6507FA"/>
							<stop  offset="1" style="stop-color:#3919BB"/>
						</radialGradient>
						<polygon class="st53" points="329.3,481 261,441.6 261,463.3 329.3,502.8 						"/>
					</g>
					<g>
						<linearGradient id="SVGID_46_" gradientUnits="userSpaceOnUse" x1="344.2373" y1="370.1821" x2="183.0107" y2="370.8575">
							<stop  offset="0" style="stop-color:#2D0979"/>
							<stop  offset="1" style="stop-color:#5B04F7"/>
						</linearGradient>
						<path class="st54" d="M323.2,391.6l-51.5-29.7c-1.5-0.8-2.6-3.1-2.6-5v-5.8c0-1.9,1.2-2.8,2.6-2l51.5,29.7
							c1.5,0.8,2.6,3.1,2.6,5v5.8C325.9,391.6,324.7,392.5,323.2,391.6z"/>
						<path class="st55" d="M274.4,360.8c-1.5-0.8-2.6-3.1-2.6-5V350c0-0.3,0-0.6,0.1-0.8l-0.1,0c-1.5-0.8-2.6,0.1-2.6,2v5.8
							c0,1.9,1.2,4.2,2.6,5l51.5,29.7c1.2,0.7,2.2,0.2,2.5-1.2L274.4,360.8z"/>
						<path class="st5" d="M307.1,375.7l-31-17.9c-0.5-0.3-0.9-1.1-0.9-1.8l0,0c0-0.7,0.4-1,0.9-0.7l31,17.9
							c0.5,0.3,0.9,1.1,0.9,1.8l0,0C308,375.7,307.6,376,307.1,375.7z"/>
					</g>
					<g>
						<linearGradient id="SVGID_47_" gradientUnits="userSpaceOnUse" x1="344.2373" y1="404.6741" x2="183.0107" y2="405.3495">
							<stop  offset="0" style="stop-color:#2D0979"/>
							<stop  offset="1" style="stop-color:#5B04F7"/>
						</linearGradient>
						<path class="st56" d="M323.2,426.1l-51.5-29.7c-1.5-0.8-2.6-3.1-2.6-5v-5.8c0-1.9,1.2-2.8,2.6-2l51.5,29.7
							c1.5,0.8,2.6,3.1,2.6,5v5.8C325.9,426.1,324.7,427,323.2,426.1z"/>
						<path class="st55" d="M274.4,395.3c-1.5-0.8-2.6-3.1-2.6-5v-5.8c0-0.3,0-0.6,0.1-0.8l-0.1,0c-1.5-0.8-2.6,0.1-2.6,2v5.8
							c0,1.9,1.2,4.2,2.6,5l51.5,29.7c1.2,0.7,2.2,0.2,2.5-1.2L274.4,395.3z"/>
						<linearGradient id="SVGID_48_" gradientUnits="userSpaceOnUse" x1="275.2169" y1="400.0156" x2="308.029" y2="400.0156">
							<stop  offset="0" style="stop-color:#E39A65"/>
							<stop  offset="1" style="stop-color:#E95F8D"/>
						</linearGradient>
						<path class="st57" d="M307.1,410.2l-31-17.9c-0.5-0.3-0.9-1.1-0.9-1.8l0,0c0-0.7,0.4-1,0.9-0.7l31,17.9
							c0.5,0.3,0.9,1.1,0.9,1.8l0,0C308,410.2,307.6,410.5,307.1,410.2z"/>
					</g>
					<g>
						<linearGradient id="SVGID_49_" gradientUnits="userSpaceOnUse" x1="344.2373" y1="439.4844" x2="183.0107" y2="440.1598">
							<stop  offset="0" style="stop-color:#2D0979"/>
							<stop  offset="1" style="stop-color:#5B04F7"/>
						</linearGradient>
						<path class="st58" d="M323.2,461l-51.5-29.7c-1.5-0.8-2.6-3.1-2.6-5v-5.8c0-1.9,1.2-2.8,2.6-2l51.5,29.7
							c1.5,0.8,2.6,3.1,2.6,5v5.8C325.9,460.9,324.7,461.8,323.2,461z"/>
						<path class="st55" d="M274.4,430.1c-1.5-0.8-2.6-3.1-2.6-5v-5.8c0-0.3,0-0.6,0.1-0.8l-0.1,0c-1.5-0.8-2.6,0.1-2.6,2v5.8
							c0,1.9,1.2,4.2,2.6,5l51.5,29.7c1.2,0.7,2.2,0.2,2.5-1.2L274.4,430.1z"/>
						<linearGradient id="SVGID_50_" gradientUnits="userSpaceOnUse" x1="275.2169" y1="434.826" x2="308.029" y2="434.826">
							<stop  offset="0" style="stop-color:#E39A65"/>
							<stop  offset="1" style="stop-color:#E95F8D"/>
						</linearGradient>
						<path class="st59" d="M307.1,445l-31-17.9c-0.5-0.3-0.9-1.1-0.9-1.8l0,0c0-0.7,0.4-1,0.9-0.7l31,17.9c0.5,0.3,0.9,1.1,0.9,1.8
							l0,0C308,445,307.6,445.3,307.1,445z"/>
					</g>
					<g>
						<linearGradient id="SVGID_51_" gradientUnits="userSpaceOnUse" x1="344.2373" y1="473.605" x2="183.0107" y2="474.2803">
							<stop  offset="0" style="stop-color:#2D0979"/>
							<stop  offset="1" style="stop-color:#5B04F7"/>
						</linearGradient>
						<path class="st60" d="M323.2,495.1l-51.5-29.7c-1.5-0.8-2.6-3.1-2.6-5v-5.8c0-1.9,1.2-2.8,2.6-2l51.5,29.7
							c1.5,0.8,2.6,3.1,2.6,5v5.8C325.9,495,324.7,495.9,323.2,495.1z"/>
						<path class="st55" d="M274.4,464.3c-1.5-0.8-2.6-3.1-2.6-5v-5.8c0-0.3,0-0.6,0.1-0.8l-0.1,0c-1.5-0.8-2.6,0.1-2.6,2v5.8
							c0,1.9,1.2,4.2,2.6,5l51.5,29.7c1.2,0.7,2.2,0.2,2.5-1.2L274.4,464.3z"/>
						<linearGradient id="SVGID_52_" gradientUnits="userSpaceOnUse" x1="275.2169" y1="468.9465" x2="308.029" y2="468.9465">
							<stop  offset="0" style="stop-color:#E39A65"/>
							<stop  offset="1" style="stop-color:#E95F8D"/>
						</linearGradient>
						<path class="st61" d="M307.1,479.1l-31-17.9c-0.5-0.3-0.9-1.1-0.9-1.8l0,0c0-0.7,0.4-1,0.9-0.7l31,17.9
							c0.5,0.3,0.9,1.1,0.9,1.8l0,0C308,479.1,307.6,479.4,307.1,479.1z"/>
					</g>
					<polygon class="st55" points="261,304 266.3,307.2 266.3,328.9 261,325.8 					"/>
					<polygon class="st55" points="261,338.4 266.3,341.5 266.3,363.3 261,360.2 					"/>
					<polygon class="st55" points="261,372.8 266.3,375.9 266.3,397.7 261,394.6 					"/>
					<polygon class="st55" points="261,407.2 266.3,410.3 266.3,432 261,428.9 					"/>
					<polygon class="st55" points="261,441.6 266.3,444.7 266.3,466.4 261,463.3 					"/>
					<g>
						<g>
							<linearGradient id="SVGID_53_" gradientUnits="userSpaceOnUse" x1="344.2373" y1="336.0085" x2="183.0107" y2="336.6838">
								<stop  offset="0" style="stop-color:#2D0979"/>
								<stop  offset="1" style="stop-color:#5B04F7"/>
							</linearGradient>
							<path class="st62" d="M323.2,357.5l-51.5-29.7c-1.5-0.8-2.6-3.1-2.6-5v-5.8c0-1.9,1.2-2.8,2.6-2l51.5,29.7
								c1.5,0.8,2.6,3.1,2.6,5v5.8C325.9,357.4,324.7,358.3,323.2,357.5z"/>
							<path class="st55" d="M274.4,326.7c-1.5-0.8-2.6-3.1-2.6-5v-5.8c0-0.3,0-0.6,0.1-0.8l-0.1,0c-1.5-0.8-2.6,0.1-2.6,2v5.8
								c0,1.9,1.2,4.2,2.6,5l51.5,29.7c1.2,0.7,2.2,0.2,2.5-1.2L274.4,326.7z"/>
							<linearGradient id="SVGID_54_" gradientUnits="userSpaceOnUse" x1="275.2169" y1="331.3499" x2="308.029" y2="331.3499">
								<stop  offset="0" style="stop-color:#E39A65"/>
								<stop  offset="1" style="stop-color:#E95F8D"/>
							</linearGradient>
							<path class="st63" d="M307.1,341.5l-31-17.9c-0.5-0.3-0.9-1.1-0.9-1.8l0,0c0-0.7,0.4-1,0.9-0.7l31,17.9
								c0.5,0.3,0.9,1.1,0.9,1.8l0,0C308,341.5,307.6,341.8,307.1,341.5z"/>
						</g>
						<path class="st4" d="M313.2,343.7c0,0.7-0.5,1-1.1,0.6c-0.6-0.3-1.1-1.2-1.1-1.9c0-0.7,0.5-1,1.1-0.6
							C312.7,342.1,313.2,343,313.2,343.7z"/>
						<path class="st4" d="M317.8,346.3c0,0.7-0.5,1-1.1,0.6c-0.6-0.3-1.1-1.2-1.1-1.9c0-0.7,0.5-1,1.1-0.6
							C317.3,344.8,317.8,345.6,317.8,346.3z"/>
						<path class="st4" d="M322.4,349c0,0.7-0.5,1-1.1,0.6c-0.6-0.3-1.1-1.2-1.1-1.9c0-0.7,0.5-1,1.1-0.6
							C322,347.5,322.4,348.3,322.4,349z"/>
					</g>
				</g>
				<path class="st4" d="M313.2,378c0,0.7-0.5,1-1.1,0.6c-0.6-0.3-1.1-1.2-1.1-1.9c0-0.7,0.5-1,1.1-0.6
					C312.7,376.5,313.2,377.3,313.2,378z"/>
				<path class="st4" d="M317.8,380.7c0,0.7-0.5,1-1.1,0.6c-0.6-0.3-1.1-1.2-1.1-1.9c0-0.7,0.5-1,1.1-0.6
					C317.3,379.2,317.8,380,317.8,380.7z"/>
				<path class="st4" d="M322.4,383.4c0,0.7-0.5,1-1.1,0.6c-0.6-0.3-1.1-1.2-1.1-1.9c0-0.7,0.5-1,1.1-0.6
					C322,381.8,322.4,382.7,322.4,383.4z"/>
				<path class="st4" d="M313.2,412.7c0,0.7-0.5,1-1.1,0.6c-0.6-0.3-1.1-1.2-1.1-1.9c0-0.7,0.5-1,1.1-0.6
					C312.7,411.1,313.2,412,313.2,412.7z"/>
				<path class="st4" d="M317.8,415.3c0,0.7-0.5,1-1.1,0.6c-0.6-0.3-1.1-1.2-1.1-1.9c0-0.7,0.5-1,1.1-0.6
					C317.3,413.8,317.8,414.6,317.8,415.3z"/>
				<path class="st4" d="M322.4,418c0,0.7-0.5,1-1.1,0.6c-0.6-0.3-1.1-1.2-1.1-1.9c0-0.7,0.5-1,1.1-0.6
					C322,416.5,322.4,417.3,322.4,418z"/>
				<path class="st4" d="M313.2,446.8c0,0.7-0.5,1-1.1,0.6c-0.6-0.3-1.1-1.2-1.1-1.9c0-0.7,0.5-1,1.1-0.6
					C312.7,445.2,313.2,446.1,313.2,446.8z"/>
				<path class="st4" d="M317.8,449.5c0,0.7-0.5,1-1.1,0.6c-0.6-0.3-1.1-1.2-1.1-1.9c0-0.7,0.5-1,1.1-0.6
					C317.3,447.9,317.8,448.8,317.8,449.5z"/>
				<path class="st4" d="M322.4,452.1c0,0.7-0.5,1-1.1,0.6c-0.6-0.3-1.1-1.2-1.1-1.9c0-0.7,0.5-1,1.1-0.6
					C322,450.6,322.4,451.4,322.4,452.1z"/>
				<path class="st4" d="M313.2,481.4c0,0.7-0.5,1-1.1,0.6c-0.6-0.3-1.1-1.2-1.1-1.9c0-0.7,0.5-1,1.1-0.6
					C312.7,479.8,313.2,480.7,313.2,481.4z"/>
				<path class="st4" d="M317.8,484c0,0.7-0.5,1-1.1,0.6c-0.6-0.3-1.1-1.2-1.1-1.9c0-0.7,0.5-1,1.1-0.6
					C317.3,482.5,317.8,483.3,317.8,484z"/>
				<path class="st4" d="M322.4,486.7c0,0.7-0.5,1-1.1,0.6c-0.6-0.3-1.1-1.2-1.1-1.9c0-0.7,0.5-1,1.1-0.6
					C322,485.2,322.4,486,322.4,486.7z"/>
				<path class="st12" d="M346.1,496.7V342.8l0.3-0.2l64.3-37.1v153.9l-0.3,0.2L346.1,496.7z M347.3,343.5v150.9l62.1-35.8V307.7
					L347.3,343.5z"/>
				<path class="st12" d="M394,374.7l-28.8,16.6c-1.9,1.1-3.5-0.1-3.5-2.7v-16c0-2.6,1.6-5.6,3.5-6.7l28.8-16.6
					c1.9-1.1,3.5,0.1,3.5,2.7v16C397.5,370.6,395.9,373.6,394,374.7z"/>
				<path class="st12" d="M394.7,349.1c0.2,0.4,0.3,1,0.3,1.6v16c0,2.6-1.6,5.6-3.5,6.7L362.6,390c-0.2,0.1-0.5,0.2-0.7,0.3
					c0.5,1.4,1.8,1.9,3.2,1l28.8-16.6c1.9-1.1,3.5-4.1,3.5-6.7v-16C397.5,349.8,396.3,348.6,394.7,349.1z"/>
				<g>
					<g>
						<path class="st4" d="M388.7,365.1c0.5-0.3,1-0.1,1,0.6v3.6c0,0.6-0.4,1.4-1,1.7s-1,0.1-1-0.6v-3.6
							C387.7,366.2,388.2,365.4,388.7,365.1z"/>
						<path class="st5" d="M384.6,367.9c0.5-0.3,1-0.1,1,0.6v3.2c0,0.6-0.4,1.4-1,1.7c-0.5,0.3-1,0.1-1-0.6v-3.2
							C383.6,369,384,368.2,384.6,367.9z"/>
						<path class="st4" d="M380.4,366.8c0.5-0.3,1-0.1,1,0.6v6.7c0,0.6-0.4,1.4-1,1.7c-0.5,0.3-1,0.1-1-0.6v-6.7
							C379.5,367.8,379.9,367.1,380.4,366.8z"/>
						<path class="st4" d="M376.3,365.3c0.5-0.3,1-0.1,1,0.6v10.6c0,0.6-0.4,1.4-1,1.7c-0.5,0.3-1,0.1-1-0.6v-10.6
							C375.3,366.3,375.8,365.6,376.3,365.3z"/>
						<path class="st5" d="M372.2,368.8c0.5-0.3,1-0.1,1,0.6v9.5c0,0.6-0.4,1.4-1,1.7c-0.5,0.3-1,0.1-1-0.6v-9.5
							C371.2,369.8,371.6,369.1,372.2,368.8z"/>
						<path class="st4" d="M368,375.5c0.5-0.3,1-0.1,1,0.6v5.2c0,0.6-0.4,1.4-1,1.7c-0.5,0.3-1,0.1-1-0.6v-5.2
							C367.1,376.6,367.5,375.8,368,375.5z"/>
					</g>
					<path class="st4" d="M387.8,363.3c0,0.6,0.4,0.9,0.9,0.5c0.5-0.3,0.9-1,0.9-1.6c0-0.6-0.4-0.9-0.9-0.5
						C388.2,361.9,387.8,362.7,387.8,363.3z"/>
					<path class="st5" d="M387.8,359.8c0,0.6,0.4,0.9,0.9,0.5c0.5-0.3,0.9-1,0.9-1.6c0-0.6-0.4-0.9-0.9-0.5
						C388.2,358.5,387.8,359.2,387.8,359.8z"/>
				</g>
			</g>
			<g>
				<g>
					<path class="st2" d="M455.4,622.4l-70.9-40.9c-2.6-1.5-2.3-4.1,0.7-5.9l75.1-43.5c3-1.7,7.5-1.9,10.1-0.4l70.9,40.9
						c2.6,1.5,2.3,4.1-0.7,5.9l-75.1,43.5C462.6,623.7,458,623.9,455.4,622.4z"/>
					<g>
						
							<linearGradient id="SVGID_55_" gradientUnits="userSpaceOnUse" x1="174.238" y1="1752.7681" x2="174.238" y2="1583.3719" gradientTransform="matrix(0.866 0.5 0 1.1547 354.2614 -1587.5302)">
							<stop  offset="0" style="stop-color:#2D0979"/>
							<stop  offset="1" style="stop-color:#5B04F7"/>
						</linearGradient>
						<path class="st64" d="M543,545.4l-75.8-43.8c-2.9-1.7-5.3-6.3-5.3-10.2V310.1c0-3.9,2.4-5.7,5.3-4l75.8,43.8
							c2.9,1.7,5.3,6.3,5.3,10.2v181.4C548.4,545.3,546,547.1,543,545.4z"/>
						<linearGradient id="SVGID_56_" gradientUnits="userSpaceOnUse" x1="533.5882" y1="463.3216" x2="343.5937" y2="428.6546">
							<stop  offset="0" style="stop-color:#2D0979"/>
							<stop  offset="1" style="stop-color:#5B04F7"/>
						</linearGradient>
						<path class="st65" d="M543,349.8L467.3,306c-1.3-0.8-2.5-0.8-3.5-0.3l0,0l-86.5,49.9l4.1,15.1l78.9,224.7l86.2-49.7
							c0,0,0,0,0,0l0.2-0.1l0,0c1.1-0.7,1.8-2.2,1.8-4.3V360C548.4,356.1,546,351.5,543,349.8z"/>
						<radialGradient id="SVGID_57_" cx="404.522" cy="306.9736" r="221.3542" gradientUnits="userSpaceOnUse">
							<stop  offset="0" style="stop-color:#E39A65"/>
							<stop  offset="0.4742" style="stop-color:#A92FFB"/>
							<stop  offset="0.5875" style="stop-color:#891CFB"/>
							<stop  offset="0.7262" style="stop-color:#6507FA"/>
							<stop  offset="1" style="stop-color:#3919BB"/>
						</radialGradient>
						<path class="st66" d="M543,349.8L467.3,306c-1.3-0.8-2.5-0.8-3.5-0.3l0,0l-86.5,49.9l4.1,15.1l21.7,61.8l4.1,2.4l139.8-80.7
							C545.9,352.3,544.6,350.7,543,349.8z"/>
						
							<radialGradient id="SVGID_58_" cx="18.9064" cy="1660.0037" r="196.5162" gradientTransform="matrix(0.866 0.5 0 1.1547 354.2614 -1587.5302)" gradientUnits="userSpaceOnUse">
							<stop  offset="0" style="stop-color:#E39A65"/>
							<stop  offset="0.4742" style="stop-color:#A92FFB"/>
							<stop  offset="0.5875" style="stop-color:#891CFB"/>
							<stop  offset="0.7262" style="stop-color:#6507FA"/>
							<stop  offset="1" style="stop-color:#3919BB"/>
						</radialGradient>
						<path class="st67" d="M456.6,595.3l-75.8-43.8c-2.9-1.7-5.3-6.3-5.3-10.2V359.9c0-3.9,2.4-5.7,5.3-4l75.8,43.8
							c2.9,1.7,5.3,6.3,5.3,10.2v181.4C461.9,595.2,459.5,597,456.6,595.3z"/>
						
							<linearGradient id="SVGID_59_" gradientUnits="userSpaceOnUse" x1="27.3804" y1="1764.4542" x2="112.5034" y2="1745.1652" gradientTransform="matrix(0.866 0.5 0 1.1547 354.2614 -1587.5302)">
							<stop  offset="0" style="stop-color:#3919BB"/>
							<stop  offset="1" style="stop-color:#6507FA"/>
						</linearGradient>
						<path class="st68" d="M451.8,584.3l-66.3-38.3c-2.6-1.5-4.7-5.5-4.7-8.9V368.7c0-3.4,2.1-5,4.7-3.5l66.3,38.3
							c2.6,1.5,4.7,5.5,4.7,8.9v168.4C456.5,584.3,454.4,585.8,451.8,584.3z"/>
						
							<linearGradient id="SVGID_60_" gradientUnits="userSpaceOnUse" x1="27.3804" y1="1764.4542" x2="112.5034" y2="1745.1652" gradientTransform="matrix(0.866 0.5 0 1.1547 354.2614 -1587.5302)">
							<stop  offset="0" style="stop-color:#3919BB"/>
							<stop  offset="1" style="stop-color:#6507FA"/>
						</linearGradient>
						<path class="st69" d="M451.8,584.3l-66.3-38.3c-2.6-1.5-4.7-5.5-4.7-8.9V368.7c0-3.4,2.1-5,4.7-3.5l66.3,38.3
							c2.6,1.5,4.7,5.5,4.7,8.9v168.4C456.5,584.3,454.4,585.8,451.8,584.3z"/>
						<path class="st12" d="M451.8,584.3l-66.3-38.3c-2.6-1.5-4.7-5.5-4.7-8.9V368.7c0-3.4,2.1-5,4.7-3.5l66.3,38.3
							c2.6,1.5,4.7,5.5,4.7,8.9v168.4C456.5,584.3,454.4,585.8,451.8,584.3z"/>
						<linearGradient id="SVGID_61_" gradientUnits="userSpaceOnUse" x1="418.3522" y1="584.9053" x2="418.3522" y2="364.6551">
							<stop  offset="0" style="stop-color:#E8975B"/>
							<stop  offset="6.930405e-03" style="stop-color:#E29063"/>
							<stop  offset="6.339521e-02" style="stop-color:#B358A3"/>
							<stop  offset="0.1111" style="stop-color:#912FD1"/>
							<stop  offset="0.1476" style="stop-color:#7C16ED"/>
							<stop  offset="0.1687" style="stop-color:#740DF8"/>
							<stop  offset="0.1989" style="stop-color:#680DE5"/>
							<stop  offset="0.2662" style="stop-color:#510EC2"/>
							<stop  offset="0.3399" style="stop-color:#3E0FA3"/>
							<stop  offset="0.4203" style="stop-color:#2E0F8B"/>
							<stop  offset="0.5101" style="stop-color:#221078"/>
							<stop  offset="0.6146" style="stop-color:#19106A"/>
							<stop  offset="0.7469" style="stop-color:#141062"/>
							<stop  offset="1" style="stop-color:#131060"/>
						</linearGradient>
						<path class="st70" d="M454,583.1l-66.3-38.3c-2.6-1.5-4.7-5.5-4.7-8.9V367.5c0-1.2,0.2-2.1,0.7-2.8c-1.7,0-2.8,1.5-2.8,4.1
							v168.4c0,3.4,2.1,7.4,4.7,8.9l66.3,38.3c1.7,1,3.2,0.6,4-0.7C455.2,583.6,454.6,583.4,454,583.1z"/>
					</g>
				</g>
				<path class="st14" d="M462,371.2l-30.2-17.4c-1.6-0.9-1.4-2.5,0.4-3.5l0,0c1.8-1,4.5-1.1,6.1-0.3l30.2,17.4
					c1.6,0.9,1.4,2.5-0.4,3.5l0,0C466.3,372,463.6,372.1,462,371.2z"/>
				<g>
					<linearGradient id="SVGID_62_" gradientUnits="userSpaceOnUse" x1="372.3105" y1="339.6972" x2="525.3954" y2="377.8352">
						<stop  offset="0" style="stop-color:#131060"/>
						<stop  offset="0.1366" style="stop-color:#141062"/>
						<stop  offset="0.2076" style="stop-color:#19106A"/>
						<stop  offset="0.2636" style="stop-color:#221078"/>
						<stop  offset="0.3116" style="stop-color:#2E0F8B"/>
						<stop  offset="0.3547" style="stop-color:#3E0FA3"/>
						<stop  offset="0.3941" style="stop-color:#510EC2"/>
						<stop  offset="0.43" style="stop-color:#680DE5"/>
						<stop  offset="0.4464" style="stop-color:#740DF8"/>
						<stop  offset="0.4617" style="stop-color:#7A14F0"/>
						<stop  offset="0.5528" style="stop-color:#9B3CC3"/>
						<stop  offset="0.6445" style="stop-color:#B75D9D"/>
						<stop  offset="0.7355" style="stop-color:#CC7680"/>
						<stop  offset="0.8256" style="stop-color:#DC886C"/>
						<stop  offset="0.9142" style="stop-color:#E5935F"/>
						<stop  offset="1" style="stop-color:#E8975B"/>
					</linearGradient>
					<path class="st71" d="M432.2,352.4c1.8-1,4.5-1.1,6.1-0.3l30.2,17.4c0.2,0.1,0.4,0.3,0.6,0.5c0.8-0.9,0.6-2-0.6-2.7L438.3,350
						c-1.6-0.9-4.3-0.8-6.1,0.3c-1.5,0.9-1.9,2.1-1,3C431.4,353,431.8,352.7,432.2,352.4z"/>
				</g>
				<path class="st14" d="M475.6,363.4l-30.2-17.4c-1.6-0.9-1.4-2.5,0.4-3.5l0,0c1.8-1,4.5-1.1,6.1-0.3l30.2,17.4
					c1.6,0.9,1.4,2.5-0.4,3.5l0,0C479.8,364.1,477.1,364.3,475.6,363.4z"/>
				<g>
					<linearGradient id="SVGID_63_" gradientUnits="userSpaceOnUse" x1="385.8617" y1="331.8735" x2="538.9467" y2="370.0115">
						<stop  offset="0" style="stop-color:#131060"/>
						<stop  offset="0.1366" style="stop-color:#141062"/>
						<stop  offset="0.2076" style="stop-color:#19106A"/>
						<stop  offset="0.2636" style="stop-color:#221078"/>
						<stop  offset="0.3116" style="stop-color:#2E0F8B"/>
						<stop  offset="0.3547" style="stop-color:#3E0FA3"/>
						<stop  offset="0.3941" style="stop-color:#510EC2"/>
						<stop  offset="0.43" style="stop-color:#680DE5"/>
						<stop  offset="0.4464" style="stop-color:#740DF8"/>
						<stop  offset="0.4617" style="stop-color:#7A14F0"/>
						<stop  offset="0.5528" style="stop-color:#9B3CC3"/>
						<stop  offset="0.6445" style="stop-color:#B75D9D"/>
						<stop  offset="0.7355" style="stop-color:#CC7680"/>
						<stop  offset="0.8256" style="stop-color:#DC886C"/>
						<stop  offset="0.9142" style="stop-color:#E5935F"/>
						<stop  offset="1" style="stop-color:#E8975B"/>
					</linearGradient>
					<path class="st72" d="M445.8,344.6c1.8-1,4.5-1.1,6.1-0.3l30.2,17.4c0.2,0.1,0.4,0.3,0.6,0.5c0.8-0.9,0.6-2-0.6-2.7l-30.2-17.4
						c-1.6-0.9-4.3-0.8-6.1,0.3c-1.5,0.9-1.9,2.1-1,3C445,345.1,445.3,344.9,445.8,344.6z"/>
				</g>
				<path class="st14" d="M489.1,355.5l-30.2-17.4c-1.6-0.9-1.4-2.5,0.4-3.5l0,0c1.8-1,4.5-1.1,6.1-0.3l30.2,17.4
					c1.6,0.9,1.4,2.5-0.4,3.5l0,0C493.4,356.3,490.7,356.4,489.1,355.5z"/>
				<g>
					<linearGradient id="SVGID_64_" gradientUnits="userSpaceOnUse" x1="399.4127" y1="324.0497" x2="552.4979" y2="362.1877">
						<stop  offset="0" style="stop-color:#131060"/>
						<stop  offset="0.1366" style="stop-color:#141062"/>
						<stop  offset="0.2076" style="stop-color:#19106A"/>
						<stop  offset="0.2636" style="stop-color:#221078"/>
						<stop  offset="0.3116" style="stop-color:#2E0F8B"/>
						<stop  offset="0.3547" style="stop-color:#3E0FA3"/>
						<stop  offset="0.3941" style="stop-color:#510EC2"/>
						<stop  offset="0.43" style="stop-color:#680DE5"/>
						<stop  offset="0.4464" style="stop-color:#740DF8"/>
						<stop  offset="0.4617" style="stop-color:#7A14F0"/>
						<stop  offset="0.5528" style="stop-color:#9B3CC3"/>
						<stop  offset="0.6445" style="stop-color:#B75D9D"/>
						<stop  offset="0.7355" style="stop-color:#CC7680"/>
						<stop  offset="0.8256" style="stop-color:#DC886C"/>
						<stop  offset="0.9142" style="stop-color:#E5935F"/>
						<stop  offset="1" style="stop-color:#E8975B"/>
					</linearGradient>
					<path class="st73" d="M459.3,336.8c1.8-1,4.5-1.1,6.1-0.3l30.2,17.4c0.2,0.1,0.4,0.3,0.6,0.5c0.8-0.9,0.6-2-0.6-2.7l-30.2-17.4
						c-1.6-0.9-4.3-0.8-6.1,0.3c-1.5,0.9-1.9,2.1-1,3C458.5,337.3,458.9,337,459.3,336.8z"/>
				</g>
				<g>
					<path class="st18" d="M438.2,435l-0.3-0.2c-1.1-0.6-2-2.4-2-3.8v-5.1c0-1.5,0.9-2.2,2-1.5l0.3,0.2c1.1,0.6,2,2.4,2,3.8v5.1
						C440.2,435,439.3,435.7,438.2,435z"/>
					<path class="st4" d="M438.2,450.1l-0.3-0.2c-1.1-0.6-2-2.4-2-3.8V441c0-1.5,0.9-2.2,2-1.5l0.3,0.2c1.1,0.6,2,2.4,2,3.8v5.1
						C440.2,450,439.3,450.7,438.2,450.1z"/>
					<path class="st18" d="M438.2,465.1l-0.3-0.2c-1.1-0.6-2-2.4-2-3.8V456c0-1.5,0.9-2.2,2-1.5l0.3,0.2c1.1,0.6,2,2.4,2,3.8v5.1
						C440.2,465,439.3,465.7,438.2,465.1z"/>
					<path class="st4" d="M438.2,480.1l-0.3-0.2c-1.1-0.6-2-2.4-2-3.8V471c0-1.5,0.9-2.2,2-1.5l0.3,0.2c1.1,0.6,2,2.4,2,3.8v5.1
						C440.2,480.1,439.3,480.7,438.2,480.1z"/>
					<path class="st5" d="M438.2,495.1l-0.3-0.2c-1.1-0.6-2-2.4-2-3.8V486c0-1.5,0.9-2.2,2-1.5l0.3,0.2c1.1,0.6,2,2.4,2,3.8v5.1
						C440.2,495.1,439.3,495.8,438.2,495.1z"/>
					<path class="st4" d="M438.2,510.1l-0.3-0.2c-1.1-0.6-2-2.4-2-3.8V501c0-1.5,0.9-2.2,2-1.5l0.3,0.2c1.1,0.6,2,2.4,2,3.8v5.1
						C440.2,510.1,439.3,510.8,438.2,510.1z"/>
					<path class="st4" d="M438.2,525.2l-0.3-0.2c-1.1-0.6-2-2.4-2-3.8v-5.1c0-1.5,0.9-2.2,2-1.5l0.3,0.2c1.1,0.6,2,2.4,2,3.8v5.1
						C440.2,525.1,439.3,525.8,438.2,525.2z"/>
					<path class="st4" d="M438.2,540.2l-0.3-0.2c-1.1-0.6-2-2.4-2-3.8v-5.1c0-1.5,0.9-2.2,2-1.5l0.3,0.2c1.1,0.6,2,2.4,2,3.8v5.1
						C440.2,540.1,439.3,540.8,438.2,540.2z"/>
					<path class="st4" d="M438.2,555.2l-0.3-0.2c-1.1-0.6-2-2.4-2-3.8v-5.1c0-1.5,0.9-2.2,2-1.5l0.3,0.2c1.1,0.6,2,2.4,2,3.8v5.1
						C440.2,555.2,439.3,555.8,438.2,555.2z"/>
					<path class="st19" d="M428.5,429.4l-0.3-0.2c-1.1-0.6-2-2.4-2-3.8v-5.1c0-1.5,0.9-2.2,2-1.5l0.3,0.2c1.1,0.6,2,2.4,2,3.8v5.1
						C430.5,429.4,429.6,430.1,428.5,429.4z"/>
					<path class="st4" d="M428.5,444.5l-0.3-0.2c-1.1-0.6-2-2.4-2-3.8v-5.1c0-1.5,0.9-2.2,2-1.5l0.3,0.2c1.1,0.6,2,2.4,2,3.8v5.1
						C430.5,444.4,429.6,445.1,428.5,444.5z"/>
					<path class="st4" d="M428.5,459.5l-0.3-0.2c-1.1-0.6-2-2.4-2-3.8v-5.1c0-1.5,0.9-2.2,2-1.5l0.3,0.2c1.1,0.6,2,2.4,2,3.8v5.1
						C430.5,459.4,429.6,460.1,428.5,459.5z"/>
					<path class="st4" d="M428.5,474.5l-0.3-0.2c-1.1-0.6-2-2.4-2-3.8v-5.1c0-1.5,0.9-2.2,2-1.5l0.3,0.2c1.1,0.6,2,2.4,2,3.8v5.1
						C430.5,474.5,429.6,475.1,428.5,474.5z"/>
					<path class="st4" d="M428.5,489.5l-0.3-0.2c-1.1-0.6-2-2.4-2-3.8v-5.1c0-1.5,0.9-2.2,2-1.5l0.3,0.2c1.1,0.6,2,2.4,2,3.8v5.1
						C430.5,489.5,429.6,490.2,428.5,489.5z"/>
					<path class="st19" d="M428.5,504.5l-0.3-0.2c-1.1-0.6-2-2.4-2-3.8v-5.1c0-1.5,0.9-2.2,2-1.5l0.3,0.2c1.1,0.6,2,2.4,2,3.8v5.1
						C430.5,504.5,429.6,505.2,428.5,504.5z"/>
					<path class="st4" d="M428.5,519.6l-0.3-0.2c-1.1-0.6-2-2.4-2-3.8v-5.1c0-1.5,0.9-2.2,2-1.5l0.3,0.2c1.1,0.6,2,2.4,2,3.8v5.1
						C430.5,519.5,429.6,520.2,428.5,519.6z"/>
					<path class="st4" d="M428.5,534.6l-0.3-0.2c-1.1-0.6-2-2.4-2-3.8v-5.1c0-1.5,0.9-2.2,2-1.5l0.3,0.2c1.1,0.6,2,2.4,2,3.8v5.1
						C430.5,534.5,429.6,535.2,428.5,534.6z"/>
					<path class="st19" d="M428.5,549.6l-0.3-0.2c-1.1-0.6-2-2.4-2-3.8v-5.1c0-1.5,0.9-2.2,2-1.5l0.3,0.2c1.1,0.6,2,2.4,2,3.8v5.1
						C430.5,549.6,429.6,550.2,428.5,549.6z"/>
					<path class="st5" d="M418.8,423.8l-0.3-0.2c-1.1-0.6-2-2.4-2-3.8v-5.1c0-1.5,0.9-2.2,2-1.5l0.3,0.2c1.1,0.6,2,2.4,2,3.8v5.1
						C420.8,423.8,419.9,424.5,418.8,423.8z"/>
					<path class="st5" d="M418.8,438.9l-0.3-0.2c-1.1-0.6-2-2.4-2-3.8v-5.1c0-1.5,0.9-2.2,2-1.5l0.3,0.2c1.1,0.6,2,2.4,2,3.8v5.1
						C420.8,438.8,419.9,439.5,418.8,438.9z"/>
					<path class="st19" d="M418.8,453.9l-0.3-0.2c-1.1-0.6-2-2.4-2-3.8v-5.1c0-1.5,0.9-2.2,2-1.5l0.3,0.2c1.1,0.6,2,2.4,2,3.8v5.1
						C420.8,453.8,419.9,454.5,418.8,453.9z"/>
					<path class="st5" d="M418.8,468.9l-0.3-0.2c-1.1-0.6-2-2.4-2-3.8v-5.1c0-1.5,0.9-2.2,2-1.5l0.3,0.2c1.1,0.6,2,2.4,2,3.8v5.1
						C420.8,468.9,419.9,469.5,418.8,468.9z"/>
					<path class="st19" d="M418.8,483.9l-0.3-0.2c-1.1-0.6-2-2.4-2-3.8v-5.1c0-1.5,0.9-2.2,2-1.5l0.3,0.2c1.1,0.6,2,2.4,2,3.8v5.1
						C420.8,483.9,419.9,484.6,418.8,483.9z"/>
					<path class="st4" d="M418.8,499l-0.3-0.2c-1.1-0.6-2-2.4-2-3.8v-5.1c0-1.5,0.9-2.2,2-1.5l0.3,0.2c1.1,0.6,2,2.4,2,3.8v5.1
						C420.8,498.9,419.9,499.6,418.8,499z"/>
					<path class="st18" d="M418.8,514l-0.3-0.2c-1.1-0.6-2-2.4-2-3.8v-5.1c0-1.5,0.9-2.2,2-1.5l0.3,0.2c1.1,0.6,2,2.4,2,3.8v5.1
						C420.8,513.9,419.9,514.6,418.8,514z"/>
					<path class="st19" d="M418.8,529l-0.3-0.2c-1.1-0.6-2-2.4-2-3.8v-5.1c0-1.5,0.9-2.2,2-1.5l0.3,0.2c1.1,0.6,2,2.4,2,3.8v5.1
						C420.8,528.9,419.9,529.6,418.8,529z"/>
					<path class="st19" d="M418.8,544l-0.3-0.2c-1.1-0.6-2-2.4-2-3.8v-5.1c0-1.5,0.9-2.2,2-1.5l0.3,0.2c1.1,0.6,2,2.4,2,3.8v5.1
						C420.8,544,419.9,544.6,418.8,544z"/>
					<path class="st4" d="M409.1,418.3l-0.3-0.2c-1.1-0.6-2-2.4-2-3.8v-5.1c0-1.5,0.9-2.2,2-1.5l0.3,0.2c1.1,0.6,2,2.4,2,3.8v5.1
						C411.2,418.2,410.3,418.9,409.1,418.3z"/>
					<path class="st19" d="M409.1,433.3l-0.3-0.2c-1.1-0.6-2-2.4-2-3.8v-5.1c0-1.5,0.9-2.2,2-1.5l0.3,0.2c1.1,0.6,2,2.4,2,3.8v5.1
						C411.2,433.2,410.3,433.9,409.1,433.3z"/>
					<path class="st19" d="M409.1,448.3l-0.3-0.2c-1.1-0.6-2-2.4-2-3.8v-5.1c0-1.5,0.9-2.2,2-1.5l0.3,0.2c1.1,0.6,2,2.4,2,3.8v5.1
						C411.2,448.3,410.3,448.9,409.1,448.3z"/>
					<path class="st4" d="M409.1,463.3l-0.3-0.2c-1.1-0.6-2-2.4-2-3.8v-5.1c0-1.5,0.9-2.2,2-1.5l0.3,0.2c1.1,0.6,2,2.4,2,3.8v5.1
						C411.2,463.3,410.3,464,409.1,463.3z"/>
					<path class="st4" d="M409.1,478.3l-0.3-0.2c-1.1-0.6-2-2.4-2-3.8v-5.1c0-1.5,0.9-2.2,2-1.5l0.3,0.2c1.1,0.6,2,2.4,2,3.8v5.1
						C411.2,478.3,410.3,479,409.1,478.3z"/>
					<path class="st19" d="M409.1,493.4l-0.3-0.2c-1.1-0.6-2-2.4-2-3.8v-5.1c0-1.5,0.9-2.2,2-1.5l0.3,0.2c1.1,0.6,2,2.4,2,3.8v5.1
						C411.2,493.3,410.3,494,409.1,493.4z"/>
					<path class="st4" d="M409.1,508.4l-0.3-0.2c-1.1-0.6-2-2.4-2-3.8v-5.1c0-1.5,0.9-2.2,2-1.5l0.3,0.2c1.1,0.6,2,2.4,2,3.8v5.1
						C411.2,508.3,410.3,509,409.1,508.4z"/>
					<path class="st4" d="M409.1,523.4l-0.3-0.2c-1.1-0.6-2-2.4-2-3.8v-5.1c0-1.5,0.9-2.2,2-1.5l0.3,0.2c1.1,0.6,2,2.4,2,3.8v5.1
						C411.2,523.4,410.3,524,409.1,523.4z"/>
					<path class="st4" d="M409.1,538.4l-0.3-0.2c-1.1-0.6-2-2.4-2-3.8v-5.1c0-1.5,0.9-2.2,2-1.5l0.3,0.2c1.1,0.6,2,2.4,2,3.8v5.1
						C411.2,538.4,410.3,539.1,409.1,538.4z"/>
					<path class="st4" d="M399.5,412.7l-0.3-0.2c-1.1-0.6-2-2.4-2-3.8v-5.1c0-1.5,0.9-2.2,2-1.5l0.3,0.2c1.1,0.6,2,2.4,2,3.8v5.1
						C401.5,412.6,400.6,413.3,399.5,412.7z"/>
					<path class="st4" d="M399.5,427.7l-0.3-0.2c-1.1-0.6-2-2.4-2-3.8v-5.1c0-1.5,0.9-2.2,2-1.5l0.3,0.2c1.1,0.6,2,2.4,2,3.8v5.1
						C401.5,427.6,400.6,428.3,399.5,427.7z"/>
					<path class="st19" d="M399.5,442.7l-0.3-0.2c-1.1-0.6-2-2.4-2-3.8v-5.1c0-1.5,0.9-2.2,2-1.5l0.3,0.2c1.1,0.6,2,2.4,2,3.8v5.1
						C401.5,442.7,400.6,443.3,399.5,442.7z"/>
					<path class="st18" d="M399.5,457.7l-0.3-0.2c-1.1-0.6-2-2.4-2-3.8v-5.1c0-1.5,0.9-2.2,2-1.5l0.3,0.2c1.1,0.6,2,2.4,2,3.8v5.1
						C401.5,457.7,400.6,458.4,399.5,457.7z"/>
					<path class="st19" d="M399.5,472.7l-0.3-0.2c-1.1-0.6-2-2.4-2-3.8v-5.1c0-1.5,0.9-2.2,2-1.5l0.3,0.2c1.1,0.6,2,2.4,2,3.8v5.1
						C401.5,472.7,400.6,473.4,399.5,472.7z"/>
					<path class="st4" d="M399.5,487.8l-0.3-0.2c-1.1-0.6-2-2.4-2-3.8v-5.1c0-1.5,0.9-2.2,2-1.5l0.3,0.2c1.1,0.6,2,2.4,2,3.8v5.1
						C401.5,487.7,400.6,488.4,399.5,487.8z"/>
					<path class="st4" d="M399.5,502.8l-0.3-0.2c-1.1-0.6-2-2.4-2-3.8v-5.1c0-1.5,0.9-2.2,2-1.5l0.3,0.2c1.1,0.6,2,2.4,2,3.8v5.1
						C401.5,502.7,400.6,503.4,399.5,502.8z"/>
					<path class="st5" d="M399.5,517.8l-0.3-0.2c-1.1-0.6-2-2.4-2-3.8v-5.1c0-1.5,0.9-2.2,2-1.5l0.3,0.2c1.1,0.6,2,2.4,2,3.8v5.1
						C401.5,517.8,400.6,518.4,399.5,517.8z"/>
					<path class="st5" d="M399.5,532.8l-0.3-0.2c-1.1-0.6-2-2.4-2-3.8v-5.1c0-1.5,0.9-2.2,2-1.5l0.3,0.2c1.1,0.6,2,2.4,2,3.8v5.1
						C401.5,532.8,400.6,533.5,399.5,532.8z"/>
				</g>
			</g>
		</g>
		<g>
			<g>
				<defs>
					<path id="SVGID_65_" d="M117.1,398.2l-1.6,1c-0.6,0.3-1.3,0.2-1.6-0.4c-0.3-0.6-0.2-1.3,0.4-1.6l1.6-1L117.1,398.2z"/>
				</defs>
				<clipPath id="SVGID_66_">
					<use xlink:href="#SVGID_65_"  style="overflow:visible;"/>
				</clipPath>
				<g style="clip-path:url(#SVGID_66_);">
					<image style="overflow:visible;" width="8" height="6" xlink:href="D69C76F0.png"  transform="matrix(1 0 0 1 110 396)">
					</image>
				</g>
			</g>
			<image style="overflow:visible;" width="48" height="32" xlink:href="D69C76F1.png"  transform="matrix(1 0 0 1 114 368)">
			</image>
			<g>
				<defs>
					<path id="SVGID_67_" d="M158.7,369.4l1.6-1c0.6-0.3,1.3-0.2,1.6,0.4c0.3,0.6,0.2,1.3-0.4,1.6l-1.6,1L158.7,369.4z"/>
				</defs>
				<clipPath id="SVGID_68_">
					<use xlink:href="#SVGID_67_"  style="overflow:visible;"/>
				</clipPath>
				<g style="clip-path:url(#SVGID_68_);">
					<image style="overflow:visible;" width="8" height="7" xlink:href="D69C76F7.png"  transform="matrix(1 0 0 1 158 365)">
					</image>
				</g>
			</g>
		</g>
		<g>
			<g>
				<defs>
					<path id="SVGID_69_" d="M804.4,388.6l1.6,1c0.6,0.3,0.7,1.1,0.4,1.6c-0.3,0.6-1.1,0.7-1.6,0.4l-1.6-1L804.4,388.6z"/>
				</defs>
				<clipPath id="SVGID_70_">
					<use xlink:href="#SVGID_69_"  style="overflow:visible;"/>
				</clipPath>
				<g style="clip-path:url(#SVGID_70_);">
					<image style="overflow:visible;" width="7" height="7" xlink:href="D69C76F2.png"  transform="matrix(1 0 0 1 803 388)">
					</image>
				</g>
			</g>
			<image style="overflow:visible;" width="56" height="37" xlink:href="D69C76F3.png"  transform="matrix(1 0 0 1 750 355)">
			</image>
			<g>
				<defs>
					<path id="SVGID_71_" d="M751.6,358.4l-1.6-1c-0.6-0.3-0.7-1.1-0.4-1.6c0.3-0.6,1.1-0.7,1.6-0.4l1.6,1L751.6,358.4z"/>
				</defs>
				<clipPath id="SVGID_72_">
					<use xlink:href="#SVGID_71_"  style="overflow:visible;"/>
				</clipPath>
				<g style="clip-path:url(#SVGID_72_);">
					<image style="overflow:visible;" width="7" height="7" xlink:href="D69C76FE.png"  transform="matrix(1 0 0 1 746 352)">
					</image>
				</g>
			</g>
		</g>
	</g>
</g>
</svg>
