<svg id="Headstart" xmlns="http://www.w3.org/2000/svg" width="156.949" height="34.596" viewBox="0 0 156.949 34.596">
  <g id="Headstart-2" data-name="Headstart">
    <g id="Group_6078" data-name="Group 6078">
      <path id="Path_8175" data-name="Path 8175" d="M261.286,258.732a1,1,0,1,0,.5.574A1,1,0,0,0,261.286,258.732Z" transform="translate(-243.475 -242.334)" fill="#fff"/>
      <path id="Path_8176" data-name="Path 8176" d="M281.916,184.219a1.726,1.726,0,1,0-.872-1A1.727,1.727,0,0,0,281.916,184.219Z" transform="translate(-263.252 -169.543)" fill="#fff"/>
      <path id="Path_8177" data-name="Path 8177" d="M17.3,0A17.3,17.3,0,0,0,7.215,31.354l3.365-6.83,1.035.51L8.183,32q.456.283.929.539l3.465-7.032,1.036.511-3.467,7.034q.488.222.993.414l3.437-6.973L15.61,27l-3.37,6.842A17.3,17.3,0,1,0,17.3,0ZM11.245,23.207l-2.393.453,1.97-3.978,1.713-.287a29.531,29.531,0,0,0-1.29,3.812Zm6.11,4.665-1.091-2.179a29.078,29.078,0,0,0,2.252-3.336l.81,1.536ZM15.8,25.452l-4.014-1.977s3.578-10.429,6.345-14.5l5.3,2.625C21.88,16.277,15.8,25.452,15.8,25.452Zm7.926-15c-.019.105-.043.219-.071.335L18.626,8.291c.071-.087.144-.173.214-.25a8.773,8.773,0,0,1,4.519-3.007A8.793,8.793,0,0,1,23.727,10.45Z" transform="translate(0)" fill="#fff"/>
    </g>
    <g id="Group_6079" data-name="Group 6079" transform="translate(40.649 7.004)">
      <path id="Path_8178" data-name="Path 8178" d="M645.155,111.17h3.633v7.1a8.335,8.335,0,0,1,2.158-1.387,5.563,5.563,0,0,1,2.2-.462,4.957,4.957,0,0,1,3.66,1.5,5.253,5.253,0,0,1,1.273,3.821v9.637h-3.605v-6.394a15.814,15.814,0,0,0-.241-3.431,2.411,2.411,0,0,0-.824-1.341,2.319,2.319,0,0,0-1.442-.443,2.72,2.72,0,0,0-1.911.738,3.913,3.913,0,0,0-1.1,2.01,16.509,16.509,0,0,0-.161,3v5.857h-3.633Z" transform="translate(-645.155 -111.17)" fill="#fff"/>
      <path id="Path_8179" data-name="Path 8179" d="M893.435,203.286H881.678a3.912,3.912,0,0,0,1.361,2.473,4.276,4.276,0,0,0,2.823.919,4.878,4.878,0,0,0,3.524-1.434l3.083,1.448a7.278,7.278,0,0,1-2.76,2.419,8.655,8.655,0,0,1-3.82.783,7.548,7.548,0,0,1-5.589-2.164,7.366,7.366,0,0,1-2.157-5.423,7.62,7.62,0,0,1,2.151-5.543,7.229,7.229,0,0,1,5.4-2.2,7.5,7.5,0,0,1,5.6,2.2,7.977,7.977,0,0,1,2.158,5.825Zm-3.66-2.881a3.675,3.675,0,0,0-1.43-1.984,4.136,4.136,0,0,0-2.478-.764,4.38,4.38,0,0,0-2.685.858,4.787,4.787,0,0,0-1.342,1.89Z" transform="translate(-863.462 -189.308)" fill="#fff"/>
      <path id="Path_8180" data-name="Path 8180" d="M1151.245,194.929h3.658v14.583h-3.658v-1.541a7.156,7.156,0,0,1-2.149,1.469,6.045,6.045,0,0,1-2.336.447,6.494,6.494,0,0,1-4.888-2.191,7.65,7.65,0,0,1-2.061-5.448,7.833,7.833,0,0,1,2-5.536,6.356,6.356,0,0,1,4.847-2.157,6.176,6.176,0,0,1,2.463.495,6.767,6.767,0,0,1,2.129,1.488Zm-3.848,3a3.7,3.7,0,0,0-2.818,1.2,4.317,4.317,0,0,0-1.122,3.076,4.368,4.368,0,0,0,1.142,3.11,3.7,3.7,0,0,0,2.812,1.22,3.772,3.772,0,0,0,2.859-1.2,4.386,4.386,0,0,0,1.135-3.145,4.257,4.257,0,0,0-1.135-3.082,3.822,3.822,0,0,0-2.873-1.179Z" transform="translate(-1108.645 -189.301)" fill="#fff"/>
      <path id="Path_8181" data-name="Path 8181" d="M1421.455,111.17h3.656v20.212h-3.656v-1.541a7.155,7.155,0,0,1-2.148,1.468,6.044,6.044,0,0,1-2.336.447,6.491,6.491,0,0,1-4.886-2.191,7.636,7.636,0,0,1-2.061-5.448,7.838,7.838,0,0,1,1.993-5.536,6.357,6.357,0,0,1,4.847-2.157,6.18,6.18,0,0,1,2.464.495,6.739,6.739,0,0,1,2.127,1.488Zm-3.846,8.632a3.7,3.7,0,0,0-2.819,1.2,4.793,4.793,0,0,0,.021,6.186,3.7,3.7,0,0,0,2.812,1.22,3.768,3.768,0,0,0,2.859-1.2,4.4,4.4,0,0,0,1.135-3.145,4.254,4.254,0,0,0-1.135-3.082,3.822,3.822,0,0,0-2.872-1.179Z" transform="translate(-1361.832 -111.17)" fill="#fff"/>
      <path id="Path_8182" data-name="Path 8182" d="M1682.552,196.971l-2.264,2.265a3.841,3.841,0,0,0-2.506-1.368,1.579,1.579,0,0,0-.966.262.784.784,0,0,0-.348.649.8.8,0,0,0,.221.543,4.069,4.069,0,0,0,1.093.678l1.34.671a7.887,7.887,0,0,1,2.909,2.13,4.44,4.44,0,0,1-.637,5.791,5.45,5.45,0,0,1-3.826,1.3,6.088,6.088,0,0,1-5.095-2.492l2.252-2.454a5.191,5.191,0,0,0,1.509,1.214,3.334,3.334,0,0,0,1.534.462,1.829,1.829,0,0,0,1.165-.348,1.011,1.011,0,0,0,.443-.8q0-.847-1.595-1.65l-1.233-.617q-3.54-1.782-3.539-4.462a3.874,3.874,0,0,1,1.333-2.956,4.838,4.838,0,0,1,3.411-1.225,5.913,5.913,0,0,1,4.8,2.412Z" transform="translate(-1607.745 -189.304)" fill="#fff"/>
      <path id="Path_8183" data-name="Path 8183" d="M1844.133,115.2h3.658v5.374h2.172v3.15h-2.172v11.434h-3.658V123.724h-1.877v-3.15h1.877Z" transform="translate(-1766.832 -114.946)" fill="#fff"/>
      <path id="Path_8184" data-name="Path 8184" d="M1979.029,194.931h3.66v14.583h-3.66v-1.54a7.2,7.2,0,0,1-2.15,1.468,6.043,6.043,0,0,1-2.336.447,6.489,6.489,0,0,1-4.886-2.191,7.64,7.64,0,0,1-2.062-5.448,7.836,7.836,0,0,1,1.994-5.536,6.357,6.357,0,0,1,4.848-2.157,6.171,6.171,0,0,1,2.462.495,6.751,6.751,0,0,1,2.13,1.488Zm-3.847,3a3.7,3.7,0,0,0-2.821,1.2,4.79,4.79,0,0,0,.021,6.186,3.7,3.7,0,0,0,2.812,1.22,3.771,3.771,0,0,0,2.859-1.2,4.392,4.392,0,0,0,1.135-3.145,4.258,4.258,0,0,0-1.135-3.082,3.813,3.813,0,0,0-2.871-1.179Z" transform="translate(-1884.273 -189.303)" fill="#fff"/>
      <path id="Path_8185" data-name="Path 8185" d="M2234.809,194.934h3.137v1.837a3.909,3.909,0,0,1,1.354-1.649,3.265,3.265,0,0,1,1.849-.562,3.407,3.407,0,0,1,1.487.374l-1.138,3.15a2.512,2.512,0,0,0-1.059-.321,1.675,1.675,0,0,0-1.427,1.046,9.553,9.553,0,0,0-.583,4.1l.013.71v5.9h-3.633Z" transform="translate(-2134.651 -189.306)" fill="#fff"/>
      <path id="Path_8186" data-name="Path 8186" d="M2370.583,115.2h3.66v5.374h2.171v3.15h-2.171v11.434h-3.66V123.724h-1.875v-3.15h1.875Z" transform="translate(-2260.114 -114.946)" fill="#fff"/>
    </g>
  </g>
</svg>
