<svg id="Headstart" xmlns="http://www.w3.org/2000/svg" width="260" height="57.31" viewBox="0 0 260 57.31">
  <g id="Headstart-2" data-name="Headstart">
    <g id="Group_6078" data-name="Group 6078">
      <path id="Path_8175" data-name="Path 8175" d="M262.23,258.8a1.649,1.649,0,1,0,.832.951A1.65,1.65,0,0,0,262.23,258.8Z" transform="translate(-232.726 -231.635)" fill="red"/>
      <path id="Path_8176" data-name="Path 8176" d="M282.548,186.37a2.86,2.86,0,1,0-1.444-1.649A2.861,2.861,0,0,0,282.548,186.37Z" transform="translate(-251.629 -162.058)" fill="red"/>
      <path id="Path_8177" data-name="Path 8177" d="M28.655,0a28.656,28.656,0,0,0-16.7,51.94l5.574-11.314,1.714.845L13.556,53.012q.755.469,1.539.892l5.74-11.649,1.716.846L16.807,54.753q.809.368,1.645.685l5.694-11.552,1.714.845L20.278,56.065A28.658,28.658,0,1,0,28.655,0ZM18.628,38.444l-3.964.75L17.927,32.6l2.837-.475a48.921,48.921,0,0,0-2.137,6.315Zm10.121,7.728-1.807-3.61a48.171,48.171,0,0,0,3.731-5.526l1.342,2.544Zm-2.574-4.009-6.649-3.275s5.927-17.277,10.511-24.025l8.779,4.349c-2.569,7.751-12.64,22.951-12.64,22.951ZM39.306,17.311c-.031.175-.071.364-.117.555l-8.335-4.132c.118-.143.239-.287.355-.414A14.534,14.534,0,0,1,38.7,8.339,14.567,14.567,0,0,1,39.306,17.311Z" transform="translate(0)" fill="red"/>
    </g>
    <g id="Group_6079" data-name="Group 6079" transform="translate(67.338 11.603)">
      <path id="Path_8178" data-name="Path 8178" d="M645.155,111.17h6.018v11.767a13.807,13.807,0,0,1,3.575-2.3,9.216,9.216,0,0,1,3.641-.765,8.211,8.211,0,0,1,6.062,2.484q2.107,2.155,2.108,6.329v15.965h-5.972V134.06a26.2,26.2,0,0,0-.4-5.683,3.994,3.994,0,0,0-1.365-2.222,3.842,3.842,0,0,0-2.388-.733,4.507,4.507,0,0,0-3.166,1.223,6.482,6.482,0,0,0-1.83,3.33,27.338,27.338,0,0,0-.267,4.975v9.7h-6.018Z" transform="translate(-645.155 -111.17)" fill="red"/>
      <path id="Path_8179" data-name="Path 8179" d="M903.476,209.014H884a6.479,6.479,0,0,0,2.254,4.1,7.083,7.083,0,0,0,4.676,1.522,8.082,8.082,0,0,0,5.837-2.375l5.107,2.4a12.056,12.056,0,0,1-4.573,4.008,14.337,14.337,0,0,1-6.328,1.3,12.5,12.5,0,0,1-9.259-3.585,12.2,12.2,0,0,1-3.573-8.983,12.623,12.623,0,0,1,3.563-9.182,11.975,11.975,0,0,1,8.937-3.649,12.423,12.423,0,0,1,9.281,3.649,13.214,13.214,0,0,1,3.575,9.65Zm-6.062-4.772a6.087,6.087,0,0,0-2.369-3.287,6.852,6.852,0,0,0-4.105-1.265,7.256,7.256,0,0,0-4.448,1.422,7.931,7.931,0,0,0-2.223,3.13Z" transform="translate(-853.823 -185.858)" fill="red"/>
      <path id="Path_8180" data-name="Path 8180" d="M1158.753,195.175h6.06v24.158h-6.06v-2.553a11.852,11.852,0,0,1-3.56,2.433,10.014,10.014,0,0,1-3.87.741,10.757,10.757,0,0,1-8.1-3.63,12.673,12.673,0,0,1-3.415-9.025,12.976,12.976,0,0,1,3.306-9.171,10.53,10.53,0,0,1,8.029-3.574,10.229,10.229,0,0,1,4.08.819,11.2,11.2,0,0,1,3.527,2.465Zm-6.374,4.975a6.131,6.131,0,0,0-4.669,1.985,7.153,7.153,0,0,0-1.859,5.1,7.237,7.237,0,0,0,1.892,5.152,6.125,6.125,0,0,0,4.659,2.021,6.249,6.249,0,0,0,4.736-1.986,7.265,7.265,0,0,0,1.88-5.209,7.052,7.052,0,0,0-1.88-5.106,6.333,6.333,0,0,0-4.759-1.953Z" transform="translate(-1088.181 -185.852)" fill="red"/>
      <path id="Path_8181" data-name="Path 8181" d="M1428.961,111.17h6.057v33.482h-6.057V142.1a11.857,11.857,0,0,1-3.559,2.433,10.011,10.011,0,0,1-3.87.741,10.753,10.753,0,0,1-8.095-3.63,12.649,12.649,0,0,1-3.414-9.025,12.985,12.985,0,0,1,3.3-9.171,10.532,10.532,0,0,1,8.03-3.574,10.237,10.237,0,0,1,4.081.819,11.167,11.167,0,0,1,3.525,2.465Zm-6.372,14.3a6.136,6.136,0,0,0-4.67,1.985,7.939,7.939,0,0,0,.035,10.248,6.126,6.126,0,0,0,4.658,2.021,6.244,6.244,0,0,0,4.736-1.986,7.283,7.283,0,0,0,1.881-5.209,7.049,7.049,0,0,0-1.881-5.106,6.332,6.332,0,0,0-4.758-1.953Z" transform="translate(-1330.19 -111.17)" fill="red"/>
      <path id="Path_8182" data-name="Path 8182" d="M1689.17,198.555l-3.751,3.753q-2.289-2.265-4.151-2.267a2.615,2.615,0,0,0-1.6.435,1.3,1.3,0,0,0-.577,1.076,1.322,1.322,0,0,0,.365.9,6.742,6.742,0,0,0,1.811,1.123l2.22,1.111a13.067,13.067,0,0,1,4.819,3.528,7.356,7.356,0,0,1-1.056,9.594,9.027,9.027,0,0,1-6.338,2.153,10.085,10.085,0,0,1-8.44-4.128l3.731-4.065a8.6,8.6,0,0,0,2.5,2.011,5.523,5.523,0,0,0,2.542.766,3.029,3.029,0,0,0,1.93-.576,1.676,1.676,0,0,0,.735-1.332q0-1.4-2.642-2.733l-2.043-1.023q-5.864-2.953-5.863-7.392a6.417,6.417,0,0,1,2.208-4.9,8.015,8.015,0,0,1,5.651-2.03,9.8,9.8,0,0,1,7.95,4Z" transform="translate(-1565.246 -185.855)" fill="red"/>
      <path id="Path_8183" data-name="Path 8183" d="M1845.365,115.2h6.06v8.9h3.6v5.218h-3.6v18.941h-6.061V129.321h-3.109V124.1h3.109Z" transform="translate(-1717.309 -114.779)" fill="red"/>
      <path id="Path_8184" data-name="Path 8184" d="M1986.536,195.177h6.062v24.158h-6.062v-2.551a11.938,11.938,0,0,1-3.562,2.431,10.011,10.011,0,0,1-3.87.741,10.749,10.749,0,0,1-8.094-3.63,12.656,12.656,0,0,1-3.416-9.025,12.98,12.98,0,0,1,3.3-9.171,10.531,10.531,0,0,1,8.031-3.574,10.221,10.221,0,0,1,4.078.819,11.19,11.19,0,0,1,3.529,2.465Zm-6.373,4.975a6.133,6.133,0,0,0-4.672,1.985,7.937,7.937,0,0,0,.036,10.248,6.123,6.123,0,0,0,4.658,2.021,6.246,6.246,0,0,0,4.735-1.986,7.274,7.274,0,0,0,1.88-5.209,7.052,7.052,0,0,0-1.88-5.106,6.317,6.317,0,0,0-4.756-1.953Z" transform="translate(-1829.565 -185.853)" fill="red"/>
      <path id="Path_8185" data-name="Path 8185" d="M2234.809,195.18h5.2v3.043a6.476,6.476,0,0,1,2.243-2.732,5.408,5.408,0,0,1,3.063-.931,5.645,5.645,0,0,1,2.463.62l-1.886,5.218a4.158,4.158,0,0,0-1.754-.531,2.775,2.775,0,0,0-2.364,1.733q-.966,1.731-.967,6.794l.022,1.177v9.769h-6.018Z" transform="translate(-2068.89 -185.856)" fill="red"/>
      <path id="Path_8186" data-name="Path 8186" d="M2371.814,115.2h6.063v8.9h3.6v5.218h-3.6v18.941h-6.063V129.321h-3.106V124.1h3.106Z" transform="translate(-2188.813 -114.779)" fill="red"/>
    </g>
  </g>
</svg>
