<svg xmlns="http://www.w3.org/2000/svg" width="171.676" height="37.842" viewBox="0 0 171.676 37.842">
  <g id="Headstart" transform="translate(1245.515 274.542)">
    <g id="Headstart-2" data-name="Headstart" transform="translate(-1245.515 -274.542)">
      <g id="Group_6078" data-name="Group 6078">
        <path id="Path_8175" data-name="Path 8175" d="M261.421,258.742a1.089,1.089,0,1,0,.549.628A1.09,1.09,0,0,0,261.421,258.742Z" transform="translate(-241.939 -240.805)" fill="red"/>
        <path id="Path_8176" data-name="Path 8176" d="M282.007,184.527a1.888,1.888,0,1,0-.954-1.089A1.889,1.889,0,0,0,282.007,184.527Z" transform="translate(-261.591 -168.473)" fill="red"/>
        <path id="Path_8177" data-name="Path 8177" d="M18.921,0A18.921,18.921,0,0,0,7.892,34.3l3.68-7.471,1.132.558L8.951,35q.5.31,1.016.589l3.79-7.692,1.133.559L11.1,36.153q.534.243,1.086.452l3.76-7.628,1.132.558-3.686,7.484A18.923,18.923,0,1,0,18.921,0ZM12.3,25.385l-2.617.5,2.155-4.351,1.873-.314a32.3,32.3,0,0,0-1.411,4.17Zm6.683,5.1L17.79,28.1a31.807,31.807,0,0,0,2.464-3.649l.886,1.68Zm-1.7-2.647-4.39-2.163s3.914-11.408,6.94-15.863l5.8,2.872c-1.7,5.118-8.346,15.154-8.346,15.154Zm8.67-16.41c-.021.115-.047.24-.077.367l-5.5-2.728c.078-.095.158-.19.234-.273A9.6,9.6,0,0,1,25.55,5.506,9.619,9.619,0,0,1,25.954,11.43Z" transform="translate(0)" fill="red"/>
      </g>
      <g id="Group_6079" data-name="Group 6079" transform="translate(44.463 7.662)">
        <path id="Path_8178" data-name="Path 8178" d="M645.155,111.17h3.974v7.77a9.117,9.117,0,0,1,2.361-1.518,6.085,6.085,0,0,1,2.4-.5,5.421,5.421,0,0,1,4,1.64,5.746,5.746,0,0,1,1.392,4.179v10.541h-3.943v-6.994a17.292,17.292,0,0,0-.263-3.753,2.638,2.638,0,0,0-.9-1.467,2.537,2.537,0,0,0-1.577-.484,2.975,2.975,0,0,0-2.09.807,4.28,4.28,0,0,0-1.208,2.2,18.074,18.074,0,0,0-.176,3.285v6.407h-3.974Z" transform="translate(-645.155 -111.17)" fill="red"/>
        <path id="Path_8179" data-name="Path 8179" d="M894.869,204.1H882.01a4.278,4.278,0,0,0,1.489,2.705,4.677,4.677,0,0,0,3.088,1,5.336,5.336,0,0,0,3.854-1.568l3.372,1.583a7.962,7.962,0,0,1-3.019,2.646,9.468,9.468,0,0,1-4.179.856,8.256,8.256,0,0,1-6.114-2.367,8.058,8.058,0,0,1-2.359-5.932,8.334,8.334,0,0,1,2.353-6.063,7.906,7.906,0,0,1,5.9-2.41,8.2,8.2,0,0,1,6.128,2.41,8.725,8.725,0,0,1,2.361,6.372Zm-4-3.151a4.019,4.019,0,0,0-1.564-2.17,4.524,4.524,0,0,0-2.711-.835,4.791,4.791,0,0,0-2.937.939,5.237,5.237,0,0,0-1.468,2.067Z" transform="translate(-862.084 -188.815)" fill="red"/>
        <path id="Path_8180" data-name="Path 8180" d="M1152.318,194.965h4v15.952h-4v-1.686a7.824,7.824,0,0,1-2.351,1.606,6.614,6.614,0,0,1-2.556.489,7.1,7.1,0,0,1-5.346-2.4,8.367,8.367,0,0,1-2.255-5.959,8.567,8.567,0,0,1,2.183-6.056,6.952,6.952,0,0,1,5.3-2.36,6.755,6.755,0,0,1,2.694.541,7.4,7.4,0,0,1,2.329,1.628Zm-4.208,3.285a4.049,4.049,0,0,0-3.083,1.311,4.724,4.724,0,0,0-1.228,3.365,4.778,4.778,0,0,0,1.249,3.4,4.044,4.044,0,0,0,3.076,1.334,4.125,4.125,0,0,0,3.127-1.311,4.8,4.8,0,0,0,1.241-3.44,4.656,4.656,0,0,0-1.241-3.371,4.181,4.181,0,0,0-3.142-1.29Z" transform="translate(-1105.72 -188.808)" fill="red"/>
        <path id="Path_8181" data-name="Path 8181" d="M1422.528,111.17h4v22.108h-4v-1.686a7.827,7.827,0,0,1-2.35,1.606,6.611,6.611,0,0,1-2.556.489,7.1,7.1,0,0,1-5.345-2.4,8.351,8.351,0,0,1-2.255-5.959,8.574,8.574,0,0,1,2.18-6.056,6.954,6.954,0,0,1,5.3-2.36,6.759,6.759,0,0,1,2.695.541,7.372,7.372,0,0,1,2.327,1.628Zm-4.207,9.442a4.051,4.051,0,0,0-3.084,1.311,5.241,5.241,0,0,0,.023,6.767,4.044,4.044,0,0,0,3.075,1.334,4.123,4.123,0,0,0,3.127-1.311,4.809,4.809,0,0,0,1.242-3.44,4.655,4.655,0,0,0-1.242-3.371,4.181,4.181,0,0,0-3.142-1.29Z" transform="translate(-1357.31 -111.17)" fill="red"/>
        <path id="Path_8182" data-name="Path 8182" d="M1683.5,197.2l-2.477,2.478a4.2,4.2,0,0,0-2.741-1.5,1.727,1.727,0,0,0-1.056.287.857.857,0,0,0-.381.71.871.871,0,0,0,.241.594,4.452,4.452,0,0,0,1.2.741l1.466.734a8.627,8.627,0,0,1,3.182,2.329,4.857,4.857,0,0,1-.7,6.335,5.961,5.961,0,0,1-4.185,1.422,6.659,6.659,0,0,1-5.573-2.726l2.463-2.684a5.673,5.673,0,0,0,1.65,1.328,3.646,3.646,0,0,0,1.678.505,2,2,0,0,0,1.275-.381,1.106,1.106,0,0,0,.485-.88q0-.926-1.744-1.8l-1.349-.675q-3.872-1.95-3.871-4.881a4.237,4.237,0,0,1,1.458-3.233,5.292,5.292,0,0,1,3.731-1.34,6.468,6.468,0,0,1,5.249,2.638Z" transform="translate(-1601.671 -188.811)" fill="red"/>
        <path id="Path_8183" data-name="Path 8183" d="M1844.309,115.2h4v5.879h2.376v3.445h-2.376V137.03h-4V124.524h-2.053v-3.445h2.053Z" transform="translate(-1759.754 -114.922)" fill="red"/>
        <path id="Path_8184" data-name="Path 8184" d="M1980.1,194.966h4v15.952h-4v-1.684a7.879,7.879,0,0,1-2.352,1.605,6.609,6.609,0,0,1-2.555.489,7.1,7.1,0,0,1-5.345-2.4,8.358,8.358,0,0,1-2.255-5.959,8.571,8.571,0,0,1,2.182-6.056,6.953,6.953,0,0,1,5.3-2.36,6.749,6.749,0,0,1,2.693.541,7.384,7.384,0,0,1,2.33,1.628Zm-4.208,3.285a4.05,4.05,0,0,0-3.085,1.311,5.241,5.241,0,0,0,.023,6.767,4.044,4.044,0,0,0,3.076,1.334,4.124,4.124,0,0,0,3.127-1.311,4.8,4.8,0,0,0,1.241-3.44,4.656,4.656,0,0,0-1.241-3.371,4.17,4.17,0,0,0-3.141-1.29Z" transform="translate(-1876.454 -188.81)" fill="red"/>
        <path id="Path_8185" data-name="Path 8185" d="M2234.809,194.97h3.432v2.009a4.28,4.28,0,0,1,1.481-1.8,3.572,3.572,0,0,1,2.023-.615,3.728,3.728,0,0,1,1.627.409l-1.246,3.445a2.743,2.743,0,0,0-1.158-.351,1.833,1.833,0,0,0-1.561,1.144,10.463,10.463,0,0,0-.638,4.486l.015.777v6.45h-3.973Z" transform="translate(-2125.254 -188.813)" fill="red"/>
        <path id="Path_8186" data-name="Path 8186" d="M2370.76,115.2h4v5.879h2.375v3.445h-2.375V137.03h-4V124.524h-2.051v-3.445h2.051Z" transform="translate(-2249.925 -114.922)" fill="red"/>
      </g>
    </g>
  </g>
</svg>
